<?xml version="1.0" standalone="no"?>
<!DOCTYPE svg PUBLIC "-//W3C//DTD SVG 20010904//EN"
 "http://www.w3.org/TR/2001/REC-SVG-20010904/DTD/svg10.dtd">
<svg version="1.0" xmlns="http://www.w3.org/2000/svg"
 width="1024.000000pt" height="1024.000000pt" viewBox="0 0 1024.000000 1024.000000"
 preserveAspectRatio="xMidYMid meet">

<g transform="translate(0.000000,1024.000000) scale(0.100000,-0.100000)"
fill="#000000" stroke="none">
<path d="M4850 8620 c-211 -20 -469 -64 -640 -111 -131 -35 -302 -90 -297 -95
3 -3 47 9 98 25 270 87 734 177 814 157 26 -7 34 -31 13 -39 -10 -4 -10 -6 0
-6 6 -1 12 -8 12 -16 0 -8 5 -15 10 -15 6 0 10 7 10 15 0 8 -6 15 -12 15 -9 0
-8 3 2 10 12 7 12 12 2 22 -23 23 -11 28 73 28 72 0 85 -3 85 -16 0 -14 -3
-14 -15 -4 -10 9 -15 9 -15 1 0 -6 -9 -11 -20 -11 -17 0 -18 -3 -8 -13 6 -8
22 -11 35 -9 25 5 32 -15 11 -36 -7 -7 -8 -12 -2 -12 5 0 2 -5 -6 -10 -12 -8
-12 -10 -1 -10 11 0 11 -3 1 -15 -8 -9 -9 -15 -2 -15 7 0 11 -24 10 -60 -1
-43 -5 -60 -14 -60 -8 0 -11 -6 -7 -17 5 -12 2 -15 -10 -10 -16 6 -24 -12 -11
-25 7 -7 60 44 56 55 -1 4 3 7 9 7 6 0 9 7 6 15 -4 8 -1 17 5 21 7 4 6 9 -2
14 -15 10 -4 30 16 30 9 0 12 -5 8 -12 -11 -18 -13 -68 -2 -68 6 0 8 -7 4 -15
-3 -8 -1 -15 5 -15 5 0 14 10 19 23 5 12 9 15 9 7 0 -19 -33 -60 -49 -60 -6 0
-8 -5 -4 -11 4 -7 1 -10 -6 -7 -22 7 -23 26 -1 33 18 5 23 27 8 41 -4 4 -7 -2
-7 -14 0 -12 -5 -22 -11 -22 -6 0 -16 -6 -23 -13 -11 -11 -9 -16 14 -29 25
-14 28 -14 39 3 13 23 27 24 34 5 4 -10 1 -13 -7 -10 -7 3 -16 -2 -19 -10 -4
-9 -3 -15 1 -15 4 1 17 -2 29 -6 17 -5 19 -10 10 -20 -9 -10 -14 -9 -23 3 -8
11 -13 12 -18 3 -4 -6 -12 -8 -18 -5 -7 4 -8 2 -4 -4 4 -6 13 -9 20 -6 10 4
13 -5 12 -32 -1 -21 -7 -39 -13 -42 -15 -4 -18 15 -4 20 5 2 3 12 -5 22 -13
19 -14 17 -10 -15 2 -18 4 -37 5 -41 0 -5 12 -8 26 -8 14 0 28 -7 31 -15 5
-11 10 -12 26 -4 26 14 49 -4 29 -23 -10 -11 -11 -10 -6 5 4 9 3 17 -3 17 -21
0 -23 -21 -5 -44 14 -18 24 -21 40 -15 13 5 25 4 28 -2 4 -5 1 -8 -6 -7 -6 2
-14 -3 -17 -11 -3 -8 0 -11 7 -7 6 4 11 1 11 -8 0 -9 -7 -16 -16 -16 -11 0
-14 -5 -10 -16 4 -10 -3 -23 -16 -34 -22 -17 -22 -19 -5 -37 21 -24 22 -33 2
-33 -8 0 -17 11 -21 25 -7 30 -23 33 -21 4 1 -11 10 -25 19 -30 10 -6 16 -14
13 -20 -4 -5 -2 -9 4 -9 5 0 12 6 14 13 3 7 6 6 6 -5 1 -22 -10 -28 -37 -21
-13 3 -19 10 -15 17 4 6 -1 5 -11 -3 -16 -14 -16 -15 2 -25 10 -6 17 -17 15
-23 -7 -18 14 -16 21 2 9 24 28 18 21 -6 -5 -16 -4 -19 5 -14 9 5 11 4 6 -4
-4 -6 -17 -9 -29 -6 -12 2 -16 2 -9 -1 6 -3 12 -11 12 -18 0 -7 12 -23 28 -37
l27 -24 -24 27 c-24 27 -22 48 6 48 10 0 13 5 8 18 -22 52 -12 70 21 37 14
-13 14 -15 0 -15 -19 0 -21 -11 -5 -27 8 -8 5 -14 -12 -23 -20 -11 -21 -13 -5
-22 13 -7 16 -17 12 -34 -7 -25 8 -34 18 -11 3 6 3 2 0 -10 -3 -13 -1 -23 5
-23 5 0 11 8 13 18 3 13 8 9 20 -15 11 -22 13 -35 6 -39 -6 -4 -8 -2 -5 3 4 6
0 14 -9 17 -26 10 -32 7 -38 -19 -4 -14 -12 -25 -20 -25 -7 0 -13 -7 -13 -15
0 -13 2 -13 17 0 9 8 22 15 28 15 6 0 9 7 6 15 -9 23 4 18 17 -7 6 -13 8 -20
4 -15 -8 7 -39 -52 -31 -60 2 -2 11 3 20 12 15 15 17 15 23 -2 4 -10 14 -24
22 -31 14 -12 13 -13 -6 -9 -13 3 -26 1 -29 -5 -3 -5 -12 -7 -20 -4 -8 3 -14
1 -14 -4 0 -10 15 -14 35 -10 5 1 1 -8 -9 -19 -22 -25 -41 -28 -32 -5 3 8 2
12 -4 9 -6 -3 -10 -15 -10 -25 0 -14 5 -18 18 -13 15 6 14 3 -3 -17 -14 -16
-16 -24 -8 -27 23 -8 -4 -42 -31 -39 -15 2 -23 -1 -20 -9 3 -6 -2 -18 -11 -25
-10 -8 -15 -9 -15 -1 0 6 -5 11 -11 11 -8 0 -8 -5 1 -15 7 -8 16 -12 21 -9 5
3 18 7 30 9 16 3 18 1 10 -9 -9 -10 -8 -15 2 -19 10 -4 14 4 15 25 1 33 22 55
34 35 3 -6 4 -15 2 -19 -3 -4 0 -8 6 -8 7 0 10 -6 7 -13 -7 -19 32 -42 46 -28
13 13 30 15 23 2 -4 -5 0 -12 6 -15 7 -3 3 -3 -10 0 -18 4 -25 1 -29 -14 -5
-20 -33 -20 -33 0 0 5 5 6 10 3 6 -3 10 -1 10 4 0 15 -4 14 -44 -10 -19 -11
-41 -17 -47 -13 -8 5 -9 3 -5 -5 5 -7 14 -10 22 -7 28 11 22 -12 -6 -24 -17
-7 -30 -17 -30 -22 0 -6 7 -5 15 2 16 13 17 12 17 -39 0 -18 -6 -37 -13 -42
-8 -5 -9 -9 -3 -9 6 0 14 3 18 7 16 16 36 10 36 -10 0 -15 3 -18 11 -10 15 15
2 50 -21 56 -24 6 -26 27 -3 27 15 0 14 2 -3 14 -10 8 -16 18 -12 22 5 4 17
-3 28 -16 11 -13 23 -20 28 -16 4 4 0 13 -8 19 -22 16 -24 61 -4 53 9 -3 18
-6 20 -6 2 0 4 -5 4 -11 0 -5 -4 -7 -10 -4 -15 9 -12 -5 5 -22 12 -11 13 -19
5 -28 -8 -10 -7 -15 2 -19 7 -3 0 -3 -17 1 l-30 6 22 -22 c14 -13 28 -18 39
-14 12 4 15 2 12 -8 -3 -8 -12 -13 -22 -11 -9 2 -16 -2 -16 -8 0 -5 7 -10 15
-10 8 0 15 -9 15 -20 0 -12 -7 -20 -16 -20 -13 0 -14 3 -5 14 9 11 8 15 -5 20
-12 4 -15 2 -10 -9 3 -8 1 -15 -5 -15 -15 0 -42 -30 -34 -38 3 -4 12 1 19 11
15 19 31 24 20 5 -5 -8 -2 -9 12 -4 14 5 11 -1 -10 -23 -16 -17 -26 -34 -23
-38 4 -3 7 -1 7 7 0 10 4 10 17 -1 15 -12 16 -12 8 1 -6 11 -3 10 12 -2 11
-10 28 -18 39 -18 18 -1 18 -1 0 -11 -15 -9 -16 -13 -5 -21 11 -8 11 -9 -1 -5
-8 2 -15 10 -15 17 0 7 -6 15 -13 18 -8 2 -10 -3 -6 -15 5 -17 5 -17 -6 1 -10
15 -14 16 -21 5 -8 -12 -11 -12 -20 1 -9 13 -10 12 -5 -3 3 -9 -3 -32 -14 -50
-16 -26 -20 -28 -20 -11 0 11 5 25 12 32 9 9 9 12 -2 13 -8 0 -25 2 -38 3 -13
2 -25 -1 -27 -5 -3 -4 6 -6 20 -4 14 1 25 -2 25 -6 0 -8 -15 -13 -32 -10 -4 0
-4 -7 -1 -16 4 -11 8 -13 11 -5 6 18 19 14 25 -8 3 -13 10 -18 21 -14 13 5 15
2 7 -17 -5 -15 -16 -24 -29 -24 -11 0 -23 -3 -26 -6 -8 -8 44 -3 65 5 9 4 21
0 30 -10 11 -13 11 -18 2 -21 -16 -6 -17 -29 -3 -38 6 -4 9 -3 8 2 -2 4 0 9 5
11 19 6 27 0 27 -18 0 -11 5 -20 10 -20 10 0 13 12 11 41 -1 9 6 22 14 29 14
12 18 11 26 -1 7 -11 9 -11 9 4 0 9 5 17 11 17 13 0 -8 -35 -46 -76 -14 -15
-25 -31 -25 -35 0 -5 -9 -18 -21 -30 -11 -11 -18 -27 -15 -34 2 -7 -1 -18 -8
-24 -11 -9 -13 -6 -13 14 0 14 3 25 8 25 5 0 6 7 2 15 -3 9 -2 15 3 14 21 -4
24 2 10 16 -16 16 -56 21 -56 6 0 -5 10 -7 23 -4 21 4 22 4 3 -11 -11 -9 -23
-16 -28 -16 -4 0 -7 -3 -7 -7 4 -23 -3 -43 -18 -59 -16 -16 -16 -16 4 -10 17
5 21 1 27 -25 3 -18 1 -38 -5 -45 -6 -8 -8 -14 -4 -14 4 0 1 -8 -6 -17 -11
-14 -8 -13 9 2 19 16 25 17 32 5 5 -8 6 -19 3 -24 -4 -6 -8 -5 -11 2 -2 7 -8
10 -12 7 -5 -3 -7 -12 -4 -20 4 -8 10 -13 14 -10 4 3 11 -2 14 -11 3 -8 11
-12 17 -8 8 5 9 3 4 -7 -11 -18 -48 -45 -57 -41 -5 1 -8 -5 -8 -13 0 -8 5 -15
10 -15 6 0 10 5 10 10 0 17 21 11 40 -12 l19 -23 -2 23 c-1 12 -5 22 -9 22 -4
0 -8 4 -8 9 0 5 14 2 31 -6 l32 -16 -24 -18 c-13 -10 -27 -19 -31 -19 -5 0 -8
-5 -8 -11 0 -5 4 -8 9 -5 5 3 12 -1 15 -10 9 -23 7 -34 -4 -34 -5 0 -6 8 -3
17 5 12 2 15 -9 10 -12 -4 -15 0 -13 19 3 31 -14 43 -22 15 -3 -11 -9 -18 -14
-15 -5 3 -9 -2 -9 -10 0 -9 5 -15 12 -14 7 2 13 -4 14 -12 3 -36 5 -40 15 -40
8 0 8 5 -1 15 -7 8 -9 15 -6 15 4 0 14 -7 22 -15 12 -12 12 -15 2 -15 -8 -1
-6 -6 6 -15 11 -8 16 -15 10 -15 -5 0 -4 -4 3 -8 8 -5 7 -12 -4 -27 -15 -20
-15 -20 -10 2 5 24 -27 67 -46 60 -16 -5 -22 -67 -7 -67 6 0 8 -6 4 -12 -5
-10 -3 -10 7 0 12 11 12 14 0 21 -10 7 -10 10 -1 16 9 6 9 10 -1 17 -12 8 -11
9 1 6 9 -3 15 -17 15 -37 0 -18 6 -35 12 -39 7 -4 9 -13 4 -21 -6 -10 -10 -9
-15 4 -3 10 -12 15 -21 12 -8 -4 -17 2 -21 15 -5 16 -8 18 -15 7 -7 -11 -9
-10 -9 4 0 9 5 17 11 17 5 0 7 4 4 10 -4 6 -11 5 -19 -3 -15 -13 -2 -52 14
-42 5 3 2 -8 -6 -25 -9 -16 -21 -30 -27 -30 -7 0 -25 -22 -41 -48 -25 -42 -29
-45 -41 -29 -16 22 -21 21 -28 -2 -3 -14 -1 -18 9 -14 8 3 14 -1 14 -11 0 -9
-7 -19 -15 -22 -26 -10 -17 -20 17 -19 19 0 34 -5 34 -12 1 -7 2 -21 3 -30 1
-12 4 -14 12 -6 7 7 8 20 3 34 -4 13 -7 31 -5 39 2 11 -3 10 -19 -5 l-22 -20
3 25 c3 17 10 25 24 25 13 0 19 6 17 17 -3 20 25 68 40 68 5 0 6 -5 2 -11 -3
-6 0 -16 7 -21 11 -8 10 -9 -3 -4 -19 6 -25 -9 -8 -19 6 -4 7 -11 4 -17 -4 -6
-10 -5 -15 3 -5 8 -9 9 -9 3 0 -6 6 -17 14 -23 11 -10 16 -8 20 7 6 16 13 19
44 15 56 -7 62 -23 6 -17 l-49 6 20 -23 c19 -21 19 -22 2 -16 -51 19 -67 19
-61 3 3 -9 10 -14 14 -11 5 3 13 -3 19 -12 9 -16 12 -16 21 -3 5 8 10 11 10 6
0 -4 -11 -21 -25 -38 -22 -26 -31 -53 -26 -80 0 -5 -3 -8 -9 -8 -5 0 -7 -7 -4
-15 8 -20 24 -9 24 18 0 13 3 18 10 11 5 -5 7 -20 3 -33 -4 -18 -11 -22 -30
-18 -18 3 -21 1 -14 -6 18 -18 12 -28 -8 -15 -10 6 -17 18 -14 25 3 7 0 13 -6
13 -6 0 -11 -11 -11 -25 0 -15 6 -25 14 -25 7 0 19 -6 25 -14 9 -11 6 -15 -14
-20 -31 -8 -33 -23 -2 -22 20 1 22 -4 21 -41 -1 -33 2 -40 14 -35 10 4 13 1 8
-7 -5 -7 -17 -11 -27 -8 -11 3 -19 1 -19 -4 0 -5 -5 -9 -12 -9 -6 0 -3 10 8
22 18 20 18 21 1 15 -11 -4 -16 -3 -12 3 3 6 13 10 22 10 12 0 13 3 4 14 -7 8
-8 16 -4 18 4 3 3 3 -4 2 -18 -4 -34 21 -26 41 4 13 3 16 -5 11 -8 -4 -16 3
-22 18 -12 32 -15 32 -16 1 -1 -17 3 -25 14 -25 12 0 13 -3 5 -11 -8 -8 -5
-17 12 -33 l24 -22 -23 -28 c-15 -19 -28 -27 -41 -23 -18 4 -17 5 3 6 12 0 22
6 22 12 0 6 -7 9 -15 5 -8 -3 -14 -2 -14 2 3 19 -2 32 -12 32 -8 0 -8 -4 0
-14 9 -11 8 -18 -4 -30 -19 -18 -35 -21 -35 -5 0 6 -7 4 -15 -5 -11 -11 -12
-21 -6 -38 9 -21 16 -10 12 16 -1 5 5 6 13 3 8 -3 17 -1 19 6 2 7 8 8 13 4 5
-5 -2 -17 -16 -29 -14 -11 -19 -17 -11 -13 7 4 17 1 22 -6 8 -12 11 -12 18 1
6 8 13 11 17 7 11 -11 -17 -38 -30 -29 -6 5 -36 9 -66 9 -30 0 -43 -2 -27 -4
15 -2 25 -9 22 -14 -4 -5 0 -9 7 -9 10 0 10 -2 -1 -9 -8 -5 -9 -11 -3 -15 5
-3 17 6 27 20 l17 26 14 -21 c9 -12 12 -26 8 -33 -5 -8 -2 -9 11 -5 14 6 17 3
13 -18 -3 -14 -2 -25 2 -25 4 0 11 -8 14 -17 6 -16 6 -16 -12 0 -23 21 -42 22
-42 2 0 -9 6 -12 15 -9 8 4 15 3 15 0 0 -4 -11 -11 -25 -16 -14 -5 -30 -21
-35 -35 -5 -14 -15 -25 -21 -25 -9 0 -9 3 0 14 8 10 8 16 -2 25 -8 6 -17 8
-20 4 -4 -3 -7 -1 -7 5 0 14 10 15 30 3 10 -7 18 -4 28 10 18 26 7 39 -31 39
-36 0 -52 8 -59 29 -2 8 -15 15 -29 17 -13 1 -18 0 -11 -3 10 -4 10 -8 0 -21
-12 -13 -10 -14 10 -3 18 10 22 9 22 -4 0 -8 8 -15 18 -16 14 0 14 -2 -3 -8
-11 -5 -26 -6 -32 -4 -14 6 -49 -25 -39 -34 3 -3 15 2 26 12 13 12 20 14 20 5
0 -9 3 -10 13 -1 17 13 87 23 87 12 0 -5 -19 -12 -42 -15 l-43 -7 23 -19 c26
-21 28 -30 6 -30 -8 0 -13 -4 -9 -9 7 -12 -34 -36 -53 -33 -7 2 -15 -4 -18
-13 -3 -8 -15 -15 -26 -15 -12 0 -17 -4 -12 -12 5 -7 2 -9 -8 -6 -8 4 -21 2
-29 -4 -12 -8 -12 -9 1 -6 8 3 26 -7 40 -21 25 -26 51 -33 66 -18 4 4 2 7 -4
7 -7 0 -12 5 -12 11 0 5 4 8 9 4 13 -7 34 32 25 46 -7 13 16 30 29 22 4 -3 12
-16 18 -30 5 -13 13 -21 19 -18 18 11 10 -1 -15 -23 -19 -17 -25 -18 -25 -7 0
8 8 15 18 15 15 1 15 2 1 13 -9 7 -14 18 -12 25 3 6 0 12 -6 12 -6 0 -11 -8
-11 -18 0 -10 -4 -22 -9 -27 -12 -14 -22 -61 -14 -68 3 -4 12 -2 19 4 8 7 14
7 19 -1 6 -9 -14 -14 -42 -11 -7 1 -13 -5 -13 -14 0 -8 -5 -15 -11 -15 -6 0
-8 8 -4 19 3 11 1 22 -5 26 -9 5 -15 -14 -11 -37 0 -4 -6 -5 -14 -1 -12 4 -13
9 -5 18 7 8 7 16 2 19 -6 3 -13 -1 -16 -10 -4 -11 -13 -13 -28 -8 -23 6 -23 6
2 -15 20 -18 22 -24 10 -31 -16 -10 -33 -3 -25 11 9 14 -9 11 -31 -6 -18 -14
-18 -15 5 -12 13 1 26 -4 28 -11 3 -7 -1 -10 -9 -7 -8 3 -23 -3 -33 -15 -10
-11 -13 -20 -7 -20 6 0 12 6 15 13 8 22 15 3 10 -25 -3 -15 -10 -25 -15 -22
-5 3 -8 -2 -6 -11 2 -10 -3 -20 -11 -23 -9 -3 -12 0 -8 10 3 9 0 21 -6 27 -17
17 -31 13 -17 -4 7 -9 10 -18 6 -22 -3 -3 -6 -2 -6 4 0 6 -9 13 -20 16 -36 9
-21 -13 20 -29 47 -19 52 -32 10 -26 -16 2 -30 8 -30 13 0 5 -4 9 -10 9 -31 0
9 -32 43 -35 4 0 7 -3 7 -7 0 -5 0 -13 0 -19 0 -6 -7 -3 -16 6 -14 14 -19 14
-39 1 -17 -11 -25 -12 -34 -3 -8 8 -11 8 -11 0 0 -6 6 -13 13 -16 7 -3 2 -9
-13 -15 -22 -9 -23 -11 -4 -11 11 -1 25 4 32 11 9 9 12 9 13 -2 0 -8 5 -4 10
9 5 13 12 21 15 18 9 -9 -16 -47 -31 -47 -7 0 -17 -5 -21 -12 -5 -8 -2 -9 9
-5 11 4 22 -2 33 -16 11 -15 18 -18 21 -9 3 6 9 12 14 12 17 0 -2 -21 -27 -30
-24 -9 -33 -30 -14 -30 7 0 7 -6 0 -20 -7 -14 -7 -20 0 -20 5 0 10 7 10 15 0
8 5 15 10 15 17 0 11 -18 -12 -34 -25 -18 -63 -4 -54 19 3 8 1 17 -3 20 -15 9
-21 -24 -7 -37 7 -7 11 -19 10 -26 -1 -7 0 -8 2 -3 6 12 44 2 44 -12 0 -6 -3
-7 -6 -4 -4 3 -14 2 -24 -3 -10 -5 -20 -6 -24 -3 -15 15 -36 10 -36 -8 0 -10
0 -22 0 -26 0 -10 22 -11 35 -2 6 4 17 4 25 -1 8 -5 28 -6 45 -3 29 6 29 5 14
-13 -9 -10 -21 -28 -28 -39 l-11 -20 2 20 c2 11 10 25 18 32 18 15 10 16 -25
3 -19 -7 -24 -7 -19 2 5 8 2 9 -10 5 -10 -4 -24 -7 -32 -7 -9 0 -12 -5 -8 -12
4 -6 3 -8 -4 -4 -6 3 -13 2 -17 -4 -7 -11 35 -31 49 -22 5 3 6 0 2 -7 -5 -7
-15 -10 -24 -6 -8 3 -19 0 -24 -7 -13 -22 -9 -31 8 -17 14 12 20 9 45 -20 21
-26 26 -38 19 -52 -10 -18 -50 -16 -50 3 0 5 4 6 10 3 5 -3 18 -1 27 4 11 6
13 11 5 11 -7 0 -18 11 -24 25 -13 29 -32 34 -23 6 3 -11 1 -22 -5 -26 -6 -4
-8 -16 -5 -28 2 -12 2 -16 -1 -9 -3 6 -9 12 -13 12 -12 0 -9 -34 3 -43 7 -6 6
-7 -4 -4 -8 2 -20 -3 -27 -12 -6 -9 -15 -13 -19 -9 -4 5 0 16 9 26 10 10 17
25 17 33 0 8 -6 4 -16 -9 -8 -12 -20 -19 -26 -16 -8 5 -9 1 -5 -10 4 -10 1
-24 -8 -32 -8 -9 -15 -12 -15 -7 0 4 -7 -1 -15 -11 -8 -11 -15 -16 -15 -11 0
5 10 19 22 32 21 22 21 23 2 23 -13 0 -24 -11 -31 -30 -6 -16 -18 -30 -26 -30
-9 0 -17 -8 -20 -17 -3 -14 -6 -12 -15 10 -7 16 -10 32 -8 36 3 4 -4 7 -14 7
-10 0 -16 -6 -13 -13 3 -7 9 -13 13 -13 13 0 20 -44 8 -51 -8 -5 -6 -12 6 -24
9 -10 20 -14 24 -10 4 4 1 10 -5 12 -24 9 -13 21 25 28 32 6 34 9 17 16 l-20
9 20 -3 c14 -2 19 -9 17 -25 -3 -22 12 -30 23 -12 10 16 25 11 24 -7 0 -10 -3
-13 -5 -6 -7 15 -56 -10 -66 -34 -6 -16 -7 -16 -7 -1 -1 9 4 20 9 23 15 9 12
25 -6 25 -8 0 -13 -4 -9 -9 3 -5 1 -12 -4 -15 -5 -3 -7 -15 -4 -26 4 -14 0
-20 -11 -20 -9 0 -16 5 -16 11 0 5 5 7 12 3 7 -4 8 -3 4 5 -6 9 -11 9 -21 1
-8 -7 -19 -9 -25 -5 -5 3 -10 1 -10 -4 0 -6 -5 -11 -10 -11 -6 0 -22 -11 -36
-25 -14 -14 -20 -25 -15 -25 5 0 12 4 16 9 9 16 59 37 77 33 23 -4 31 -31 14
-47 -11 -11 -17 -11 -40 0 -21 11 -26 11 -26 1 0 -9 -9 -12 -25 -8 -14 2 -25
0 -25 -6 0 -6 -12 -15 -27 -20 l-28 -10 25 -10 c14 -6 20 -11 13 -11 -7 -1
-10 -8 -6 -17 5 -13 2 -15 -13 -10 -15 4 -19 1 -20 -18 -1 -17 2 -23 12 -19 8
3 14 9 14 14 0 5 8 9 18 9 13 0 11 -5 -11 -24 -16 -14 -26 -30 -22 -35 3 -6 2
-11 -4 -11 -5 0 -11 5 -13 12 -3 7 -10 8 -17 4 -7 -5 -9 -11 -5 -15 18 -12 48
-52 39 -50 -17 4 -45 -13 -45 -26 0 -20 -17 -28 -36 -17 -11 6 -13 11 -5 16 6
4 11 2 11 -3 0 -22 18 -10 18 12 2 63 6 83 21 94 13 9 14 14 4 24 -19 19 -37
-3 -42 -53 -2 -18 -21 -6 -21 12 0 11 4 20 8 20 5 0 9 7 9 15 0 8 -2 15 -4 15
-9 0 -32 -70 -27 -83 3 -8 -2 -20 -11 -27 -12 -10 -18 -10 -30 0 -10 9 -15 9
-15 1 0 -6 5 -11 11 -11 5 0 7 -5 4 -10 -4 -6 -12 -7 -18 -4 -9 5 -9 4 0 -6 6
-7 9 -18 7 -25 -9 -22 14 -27 41 -9 14 9 25 12 25 6 0 -6 -4 -12 -9 -14 -5 -1
-7 -15 -4 -30 3 -15 8 -26 12 -24 4 3 13 -5 21 -17 12 -20 12 -21 -2 -9 -13
10 -17 10 -21 0 -2 -7 -7 1 -11 17 -7 33 -59 64 -72 43 -4 -6 -13 4 -21 22 -7
18 -16 31 -18 28 -9 -9 25 -79 35 -73 6 3 10 1 10 -4 0 -6 5 -11 11 -11 6 0 9
7 5 15 -3 8 -1 15 4 15 12 0 13 -20 1 -39 -6 -9 -11 -10 -15 -2 -12 19 -23 12
-19 -13 3 -13 11 -23 20 -22 9 0 18 -6 20 -14 4 -13 3 -13 -6 0 -10 13 -12 13
-21 0 -5 -9 -10 -10 -10 -3 0 13 -18 12 -39 -1 -11 -7 -13 -5 -8 8 5 13 1 19
-13 23 -19 5 -19 6 5 35 29 34 31 44 9 52 -24 9 -28 7 -14 -9 16 -19 6 -47
-15 -39 -11 5 -14 2 -8 -12 4 -12 3 -15 -5 -10 -8 5 -10 2 -6 -8 7 -17 -11
-22 -19 -6 -3 6 -4 5 -3 -2 2 -7 15 -13 29 -13 31 1 37 -24 7 -26 -11 -1 -28
-2 -37 -2 -23 -2 -34 -18 -22 -33 14 -17 1 -64 -17 -57 -8 3 -14 0 -14 -6 0
-6 6 -11 13 -11 6 -1 1 -7 -13 -15 -14 -8 -20 -15 -15 -15 6 0 3 -5 -5 -11
-12 -8 -12 -12 -2 -16 16 -6 -3 -33 -23 -33 -8 0 -15 -6 -18 -12 -2 -7 -8 -10
-12 -5 -11 9 26 37 39 29 5 -3 6 2 3 12 -4 10 -7 22 -7 27 0 5 -5 9 -11 9 -6
0 -9 -6 -6 -14 3 -7 -5 -23 -19 -35 -24 -21 -24 -21 -24 -1 0 11 7 20 15 20 8
0 15 5 15 10 0 13 -13 13 -26 1 -5 -6 -14 -4 -22 5 -13 15 -13 15 28 17 21 2
24 6 22 27 -2 14 -1 22 3 18 4 -4 14 -1 21 7 8 7 23 11 36 8 18 -5 20 -3 13
13 -4 10 -8 25 -8 32 0 6 -6 12 -14 12 -10 0 -11 -5 -4 -18 7 -14 4 -20 -15
-29 -14 -6 -26 -7 -30 -2 -3 5 -10 9 -16 9 -7 0 -6 -5 1 -14 8 -9 8 -16 2 -20
-6 -4 -8 -13 -4 -21 3 -9 -1 -15 -9 -15 -9 0 -13 11 -13 35 1 19 -2 35 -7 35
-5 0 -6 5 -2 12 4 6 3 8 -4 4 -7 -4 -8 -17 -1 -38 7 -24 5 -36 -7 -49 -13 -15
-13 -18 0 -32 11 -11 14 -25 10 -46 -6 -30 9 -45 19 -18 3 7 6 5 6 -5 1 -20
-16 -23 -38 -9 -9 6 -22 6 -31 1 -21 -11 -45 4 -37 24 8 21 -9 30 -18 8 -7
-16 -8 -15 -15 3 -4 12 -3 23 4 28 7 6 5 7 -6 4 -9 -3 -19 -1 -22 6 -2 7 -5 5
-5 -5 -1 -9 -4 -18 -8 -21 -5 -2 -3 -3 4 -1 18 4 22 -6 12 -38 -5 -19 -5 -37
1 -47 5 -9 10 -12 10 -7 0 5 9 1 20 -9 16 -14 23 -16 32 -7 9 9 7 12 -9 12
-11 0 -26 7 -33 15 -10 12 -9 15 6 15 18 1 18 1 2 11 -25 14 -23 32 2 19 11
-6 20 -20 20 -30 0 -20 11 -26 24 -13 10 10 46 11 46 0 0 -5 -9 -11 -21 -14
-11 -3 -18 -11 -16 -17 3 -8 -7 -12 -27 -12 -19 0 -30 -4 -28 -12 1 -7 -2 -21
-7 -31 -7 -13 -6 -18 5 -18 7 0 14 4 14 9 0 4 4 8 10 8 5 0 7 -7 4 -15 -4 -8
-13 -15 -21 -15 -8 0 -11 -5 -8 -10 9 -14 -17 -8 -30 7 -5 6 -19 13 -29 15
-11 1 -21 9 -24 17 -3 8 0 11 7 7 6 -4 11 -3 11 2 0 5 9 19 19 31 12 14 17 29
13 39 -6 15 -7 14 -10 -3 -5 -25 -21 -45 -36 -44 -7 0 -6 2 2 6 23 9 12 21
-24 25 -29 3 -33 2 -20 -7 9 -7 13 -15 9 -18 -3 -4 -1 -7 5 -7 20 0 13 -27 -8
-33 -14 -4 -18 -10 -13 -23 6 -17 7 -16 13 1 6 17 7 17 13 1 4 -11 13 -15 24
-12 10 3 25 1 33 -5 13 -9 13 -10 -2 -6 -9 3 -19 1 -21 -6 -3 -9 -8 -8 -21 2
-15 13 -19 13 -26 1 -11 -18 -10 -19 21 -23 14 -2 25 -11 27 -23 3 -26 -8 -40
-40 -47 -23 -6 -25 -4 -21 13 3 11 10 20 15 20 5 0 6 -5 3 -10 -3 -6 0 -10 8
-10 13 0 27 20 27 37 0 2 -18 2 -40 -2 -28 -5 -40 -3 -40 5 0 7 7 10 15 6 11
-4 14 0 11 17 -3 12 -5 23 -7 25 -1 1 -2 6 -3 11 -2 15 -16 25 -16 12 0 -8 -7
-11 -15 -7 -8 3 -15 1 -15 -4 0 -6 6 -10 14 -10 20 0 27 -26 11 -40 -7 -6 -11
-21 -8 -33 4 -17 3 -19 -6 -7 -5 8 -14 11 -18 6 -4 -4 0 -13 10 -20 21 -16 21
-22 3 -29 -11 -4 -13 -1 -9 11 6 15 5 15 -10 3 -10 -7 -17 -9 -17 -3 0 6 6 13
13 15 6 3 -5 5 -26 4 -31 0 -36 -3 -32 -19 5 -13 2 -16 -8 -12 -9 3 -12 14 -9
32 3 18 1 24 -6 17 -16 -16 -25 -55 -12 -55 6 0 8 -5 5 -10 -5 -7 -11 -8 -19
-1 -7 6 -17 6 -26 1 -12 -7 -11 -10 5 -16 11 -4 23 -9 27 -11 3 -2 14 5 24 14
12 13 19 14 22 5 2 -6 11 -12 19 -12 13 0 13 3 3 15 -16 19 -9 28 14 19 9 -4
15 -13 12 -20 -3 -9 1 -14 12 -14 16 -1 16 -1 0 -10 -9 -6 -26 -7 -40 -2 -36
13 -59 4 -56 -21 2 -16 -3 -23 -19 -25 -13 -2 -23 -6 -23 -10 1 -12 30 -47 30
-36 0 6 7 19 16 30 8 10 13 13 9 7 -4 -8 1 -13 14 -13 23 0 41 -22 23 -28 -7
-2 -12 -8 -12 -14 0 -6 7 -7 16 -4 8 3 13 2 10 -3 -3 -5 -17 -8 -31 -8 -24 0
-25 1 -10 17 8 9 15 20 15 23 0 10 -19 8 -33 -3 -45 -36 -66 -58 -60 -63 11
-12 -7 -8 -37 8 -30 16 -39 10 -20 -13 7 -9 7 -9 -2 -2 -7 5 -20 10 -30 10
-10 0 -18 5 -18 11 0 5 5 7 10 4 6 -3 16 -3 23 2 19 12 49 14 42 3 -10 -15 21
-12 34 4 8 10 9 16 1 21 -5 3 -10 12 -10 18 0 7 7 3 15 -7 8 -11 15 -16 15
-10 0 21 -20 38 -47 41 -24 3 -25 1 -10 -8 18 -11 15 -29 -6 -29 -8 0 -8 3 2
9 9 6 5 9 -13 9 -15 0 -29 -5 -33 -11 -4 -6 0 -8 10 -4 10 3 17 4 17 1 0 -7
-27 -34 -34 -34 -11 0 -2 46 12 63 10 11 11 17 4 17 -7 0 -12 7 -12 15 0 8 -4
15 -10 15 -5 0 -10 -5 -10 -11 0 -6 -7 -8 -16 -5 -10 4 -14 1 -11 -6 2 -7 12
-12 21 -12 22 2 20 -8 -4 -29 -23 -20 -27 -39 -5 -31 8 4 15 2 15 -4 0 -6 -6
-12 -12 -15 -10 -3 -10 -9 -1 -25 8 -14 9 -23 3 -27 -6 -4 -9 -1 -8 6 3 15
-34 19 -44 5 -9 -14 -58 -19 -58 -6 0 5 -5 10 -11 10 -6 0 -8 -16 -6 -40 4
-37 2 -40 -16 -34 -11 4 -23 1 -27 -7 -7 -10 -11 -10 -24 0 -8 7 -21 9 -27 5
-7 -4 -10 -3 -7 2 3 5 -1 15 -9 23 -13 12 -14 11 -9 -7 6 -17 3 -20 -14 -17
-13 2 -18 0 -14 -7 4 -6 -1 -8 -13 -4 -14 5 -19 1 -19 -14 0 -25 8 -25 31 0
18 20 19 20 39 1 12 -10 32 -21 46 -25 14 -3 19 -3 13 0 -7 3 -13 10 -13 15 0
6 5 7 10 4 6 -3 13 1 16 9 3 9 11 16 17 16 5 0 2 -9 -8 -20 -16 -18 -16 -20
-2 -20 9 0 21 8 26 18 6 9 10 13 11 7 0 -17 -14 -33 -34 -36 -11 -2 -21 -10
-24 -17 -4 -12 0 -12 19 -2 l24 13 -20 -22 c-19 -23 -20 -23 -29 -2 -10 22
-40 36 -56 26 -6 -4 -7 1 -4 12 5 15 4 16 -5 3 -15 -21 -14 -30 4 -30 8 0 15
-4 15 -9 0 -5 -9 -7 -20 -4 -22 6 -28 -12 -7 -20 7 -3 6 -6 -5 -6 -9 -1 -20 4
-23 9 -11 17 -37 11 -42 -10 -3 -11 -9 -20 -14 -20 -12 0 -11 7 1 31 8 15 7
19 -5 19 -8 0 -15 4 -15 10 0 5 6 7 14 4 8 -3 17 0 22 7 5 9 2 10 -9 6 -15 -6
-22 3 -18 26 2 12 -16 8 -29 -8 -7 -8 -8 -15 -3 -15 5 0 14 -14 20 -30 6 -17
8 -30 3 -30 -4 0 -6 -10 -3 -22 4 -19 3 -20 -6 -8 -6 8 -11 25 -11 38 0 13 -4
21 -10 17 -5 -3 -7 -11 -5 -18 13 -45 14 -67 3 -65 -7 2 -20 -12 -29 -30 -19
-38 -34 -55 -23 -29 4 12 1 17 -12 18 -18 0 -18 1 0 8 18 7 18 8 2 14 -10 4
-19 1 -22 -8 -9 -22 -26 -18 -19 4 8 26 -18 34 -33 10 -7 -10 -9 -19 -4 -19
12 0 12 -39 0 -46 -6 -4 -8 -2 -4 4 6 10 -31 29 -40 19 -2 -2 34 -41 82 -86
47 -46 84 -84 82 -86 -2 -2 -46 39 -98 91 -76 75 -91 94 -73 94 12 0 27 9 33
19 9 17 7 19 -11 16 -12 -3 -24 -7 -28 -11 -3 -4 2 -4 12 -1 10 4 16 3 13 -2
-3 -5 -14 -11 -25 -14 -24 -6 -67 36 -56 54 5 7 4 10 -2 6 -25 -16 -252 273
-383 488 -24 39 -81 142 -126 230 -46 88 -84 157 -84 152 0 -17 134 -272 208
-394 149 -246 362 -508 568 -701 107 -98 154 -132 99 -71 l-30 34 32 -29 c18
-16 31 -33 30 -39 -3 -15 146 -134 283 -226 473 -320 990 -517 1565 -597 161
-22 602 -30 778 -14 1590 144 2832 1259 3146 2825 79 393 83 904 11 1305 -239
1326 -1174 2364 -2472 2744 -167 50 -372 93 -549 116 -176 24 -574 34 -729 20z
m225 -10 c-3 -5 -10 -10 -16 -10 -5 0 -9 5 -9 10 0 6 7 10 16 10 8 0 12 -4 9
-10z m283 -7 c-10 -2 -28 -2 -40 0 -13 2 -5 4 17 4 22 1 32 -1 23 -4z m-217
-43 c19 0 25 -11 13 -23 -9 -9 -44 26 -43 43 1 11 2 11 6 -2 2 -10 13 -18 24
-18z m-71 -6 c0 -9 6 -11 18 -7 15 6 15 5 3 -11 -8 -9 -17 -13 -20 -8 -3 5
-14 11 -24 15 -21 8 -16 24 8 24 8 0 15 -6 15 -13z m-20 -43 c0 -4 -7 -8 -15
-8 -8 0 -15 6 -15 13 0 8 6 11 15 8 8 -4 15 -9 15 -13z m90 3 c0 -2 -12 -4
-26 -4 -14 0 -23 4 -20 9 6 8 46 4 46 -5z m-55 -14 c3 -6 -1 -7 -9 -4 -18 7
-21 14 -7 14 6 0 13 -4 16 -10z m95 -4 c0 -2 -8 -10 -17 -17 -16 -13 -17 -12
-4 4 13 16 21 21 21 13z m-130 -16 c0 -5 -4 -10 -10 -10 -5 0 -10 5 -10 10 0
6 5 10 10 10 6 0 10 -4 10 -10z m94 -28 c-21 -5 -26 2 -18 22 6 15 7 15 20 -1
11 -15 10 -19 -2 -21z m-42 21 c-9 -4 -10 -8 -2 -18 8 -9 8 -15 0 -20 -5 -3
-10 1 -10 9 0 9 -6 16 -12 16 -9 0 -8 4 2 10 8 5 20 9 25 9 6 0 4 -3 -3 -6z
m-52 -33 c-8 -5 -17 -7 -19 -4 -3 3 1 9 9 14 8 5 17 7 19 4 3 -3 -1 -9 -9 -14z
m110 -16 c0 -2 -7 -4 -15 -4 -8 0 -15 4 -15 10 0 5 7 7 15 4 8 -4 15 -8 15
-10z m-32 -34 c3 -7 0 -10 -7 -6 -6 4 -11 1 -11 -6 0 -9 -3 -9 -10 2 -9 13
-10 13 -10 0 0 -13 -1 -13 -10 0 -15 23 -12 26 17 24 15 0 29 -7 31 -14z m16
-35 c-4 -8 -11 -12 -16 -9 -6 4 -5 10 3 15 19 12 19 11 13 -6z m-14 -35 c0 -5
-5 -10 -11 -10 -5 0 -7 5 -4 10 3 6 8 10 11 10 2 0 4 -4 4 -10z m37 -46 c-3
-3 -12 -4 -19 -1 -8 3 -5 6 6 6 11 1 17 -2 13 -5z m67 -29 c-9 -14 -18 -25
-20 -25 -2 0 2 11 8 25 6 14 15 25 20 25 5 0 1 -11 -8 -25z m-73 -8 c-6 -8 -7
-18 -3 -22 4 -5 1 -5 -5 -1 -7 4 -13 3 -13 -3 0 -5 6 -11 13 -14 6 -2 8 -8 4
-13 -4 -5 -12 -2 -16 5 -7 11 -11 9 -20 -5 -9 -17 -10 -17 -11 -1 0 9 5 17 10
17 6 0 10 6 10 13 0 15 20 37 33 37 5 0 4 -6 -2 -13z m41 -49 c-4 -17 -2 -20
12 -15 11 4 15 3 11 -4 -4 -6 -14 -8 -22 -5 -11 4 -13 2 -9 -9 3 -8 0 -15 -5
-15 -7 0 -9 11 -7 25 3 14 0 25 -6 26 -6 0 -2 4 9 9 11 5 21 9 22 9 0 1 -1 -9
-5 -21z m-102 -8 c0 -5 -5 -10 -11 -10 -5 0 -7 5 -4 10 3 6 8 10 11 10 2 0 4
-4 4 -10z m65 -20 c3 -5 0 -7 -8 -4 -18 6 -32 -12 -17 -21 13 -8 13 -25 -1
-25 -5 0 -7 5 -3 11 4 8 -4 9 -27 4 -23 -4 -29 -3 -20 3 7 5 10 15 7 21 -4 6
-3 11 3 11 5 0 11 -6 14 -12 3 -9 7 -7 12 5 8 19 30 23 40 7z m28 -61 l22 -21
-22 11 c-12 6 -25 16 -28 21 -11 17 5 11 28 -11z m78 -66 c13 -16 12 -17 -3
-4 -12 9 -18 10 -18 2 0 -6 -5 -11 -11 -11 -8 0 -8 5 1 15 15 19 15 19 31 -2z
m14 -44 c11 -16 1 -19 -13 -3 -7 8 -8 14 -3 14 5 0 13 -5 16 -11z m-39 -36
c-2 -2 -11 0 -20 3 -14 5 -15 9 -5 15 12 7 34 -10 25 -18z m13 -20 c-13 -16
-24 -29 -25 -31 -1 -1 -7 4 -14 13 -11 13 -10 15 2 10 8 -3 23 3 33 15 10 11
20 20 23 20 3 0 -5 -12 -19 -27z m81 7 c0 -5 -4 -10 -10 -10 -5 0 -10 5 -10
10 0 6 5 10 10 10 6 0 10 -4 10 -10z m85 -20 c-3 -5 -12 -10 -18 -10 -7 0 -6
4 3 10 19 12 23 12 15 0z m-227 -8 c8 -5 10 -16 5 -28 -6 -17 -5 -17 10 -5 22
17 22 8 1 -14 -15 -15 -17 -14 -30 11 -22 41 -16 55 14 36z m72 -32 c13 -8 12
-10 -3 -10 -10 0 -15 -4 -12 -10 4 -6 -1 -7 -11 -3 -11 4 -13 8 -6 11 7 2 10
8 6 13 -7 12 7 11 26 -1z m34 -25 c3 -8 1 -15 -4 -15 -6 0 -10 7 -10 15 0 8 2
15 4 15 2 0 6 -7 10 -15z m46 -5 c0 -5 -5 -10 -11 -10 -5 0 -7 5 -4 10 3 6 8
10 11 10 2 0 4 -4 4 -10z m95 0 c3 -6 -1 -7 -9 -4 -18 7 -21 14 -7 14 6 0 13
-4 16 -10z m-144 -37 c13 -16 12 -17 -3 -4 -14 10 -21 11 -32 2 -9 -7 -17 -8
-20 -2 -6 9 8 19 30 20 6 1 18 -7 25 -16z m59 -2 c0 -5 -7 -12 -16 -15 -14 -5
-15 -4 -4 9 14 17 20 19 20 6z m-70 -21 c0 -5 -2 -10 -4 -10 -3 0 -8 5 -11 10
-3 6 -1 10 4 10 6 0 11 -4 11 -10z m-10 -62 c0 -10 -5 -16 -10 -13 -6 4 -8 10
-5 15 3 5 1 11 -4 14 -5 3 -12 -2 -16 -11 -3 -10 -1 -19 4 -21 6 -2 11 -10 11
-18 0 -10 -5 -9 -20 6 -19 19 -19 21 -3 39 19 23 43 17 43 -11z m40 -10 c0 -6
-6 -5 -15 2 -8 7 -15 14 -15 16 0 2 7 1 15 -2 8 -4 15 -11 15 -16z m7 -24 c-3
-3 -12 -4 -19 -1 -8 3 -5 6 6 6 11 1 17 -2 13 -5z m31 -19 c-3 -3 -9 2 -12 12
-6 14 -5 15 5 6 7 -7 10 -15 7 -18z m-28 -5 c0 -5 -5 -10 -11 -10 -5 0 -7 5
-4 10 3 6 8 10 11 10 2 0 4 -4 4 -10z m79 -47 c-7 -10 -14 -19 -15 -21 -1 -2
-4 4 -8 13 -3 9 -2 13 3 10 5 -3 12 -1 16 5 3 5 9 10 12 10 3 0 -1 -8 -8 -17z
m-64 -3 c-3 -5 -2 -10 4 -10 6 0 8 -7 5 -15 -9 -23 -21 -18 -18 8 3 27 3 27
10 27 3 0 2 -4 -1 -10z m90 -30 c-3 -5 -16 -15 -28 -21 -19 -9 -19 -8 3 10 28
23 34 26 25 11z m-137 -22 c-2 -6 -10 -14 -16 -16 -7 -2 -10 2 -6 12 7 18 28
22 22 4z m37 -8 c5 -8 11 -7 21 1 8 7 14 7 14 1 0 -5 -6 -15 -13 -21 -11 -8
-18 -6 -32 9 -10 11 -13 20 -7 20 6 0 14 -5 17 -10z m95 -14 c0 -3 -4 -8 -10
-11 -5 -3 -10 -1 -10 4 0 6 5 11 10 11 6 0 10 -2 10 -4z m-102 -24 c15 -10 6
-43 -15 -55 -7 -4 -13 -15 -13 -24 0 -9 -3 -14 -6 -10 -3 3 -6 9 -6 14 0 4 -4
13 -9 20 -7 8 -5 10 9 6 25 -6 36 11 17 27 -28 24 -9 42 23 22z m115 -17 c-3
-9 -8 -14 -10 -11 -3 3 -2 9 2 15 9 16 15 13 8 -4z m-43 -50 c0 -5 -5 -3 -10
5 -5 8 -10 20 -10 25 0 6 5 3 10 -5 5 -8 10 -19 10 -25z m-65 -12 c-16 -24
-16 -27 -1 -38 20 -15 21 -29 1 -21 -8 3 -15 1 -15 -5 0 -5 -13 -15 -30 -20
-26 -10 -29 -14 -24 -42 4 -27 3 -29 -6 -14 -6 9 -13 27 -15 39 -3 12 -10 25
-17 30 -10 6 -8 8 5 8 11 0 17 8 17 25 0 14 2 25 4 25 14 0 36 -14 36 -22 0
-7 -4 -7 -12 0 -10 8 -13 5 -13 -13 0 -41 40 -18 42 25 1 13 10 30 19 37 26
19 28 16 9 -14z m28 -13 c-3 -11 -12 -20 -19 -20 -11 0 -10 5 3 20 10 11 18
20 19 20 1 0 0 -9 -3 -20z m57 10 c0 -5 -5 -10 -11 -10 -5 0 -7 5 -4 10 3 6 8
10 11 10 2 0 4 -4 4 -10z m37 -32 c-3 -8 -6 -5 -6 6 -1 11 2 17 5 13 3 -3 4
-12 1 -19z m-13 -16 c6 -10 -30 -9 -40 1 -4 4 2 7 14 7 11 0 23 -4 26 -8z
m-55 -36 c-3 -3 -11 5 -18 17 -13 21 -12 21 5 5 10 -10 16 -20 13 -22z m81 14
c0 -5 -5 -10 -11 -10 -5 0 -7 5 -4 10 3 6 8 10 11 10 2 0 4 -4 4 -10z m-127
-32 c8 -28 -10 -50 -35 -42 -10 3 -18 2 -17 -3 3 -20 -2 -34 -11 -28 -18 11 9
45 35 45 14 0 25 5 25 10 0 6 -4 10 -10 10 -5 0 -10 7 -10 15 0 23 17 18 23
-7z m-38 -7 c-8 -14 -25 -14 -25 0 0 5 5 7 10 4 6 -3 10 -1 10 6 0 7 3 10 6 6
3 -3 3 -10 -1 -16z m164 -25 c-3 -3 -11 5 -18 17 -13 21 -12 21 5 5 10 -10 16
-20 13 -22z m-269 0 c0 -3 -4 -8 -10 -11 -5 -3 -10 -1 -10 4 0 6 5 11 10 11 6
0 10 -2 10 -4z m244 -14 c2 -4 -7 -8 -22 -9 -24 -2 -24 -1 -7 7 11 5 21 9 22
9 1 1 4 -3 7 -7z m-64 -28 c0 -8 -19 -13 -24 -6 -3 5 1 9 9 9 8 0 15 -2 15 -3z
m36 -22 c-8 -14 -45 -22 -52 -11 -5 8 18 14 40 10 5 -1 5 6 2 16 -6 14 -4 15
5 6 6 -6 9 -16 5 -21z m61 -14 c-3 -8 -6 -5 -6 6 -1 11 2 17 5 13 3 -3 4 -12
1 -19z m-124 -33 c-3 -8 -9 -15 -15 -15 -5 0 -6 5 -3 10 3 6 -1 10 -9 10 -9 0
-16 -4 -16 -10 0 -5 -4 -10 -10 -10 -21 0 -9 19 18 28 32 11 43 7 35 -13z
m-29 -47 c-4 -41 -6 -43 -13 -18 -8 26 -5 40 8 40 4 0 7 -10 5 -22z m82 -45
c-3 -4 -6 -1 -6 6 0 9 -9 11 -27 7 l-28 -6 25 14 c22 13 26 13 33 -1 5 -8 6
-17 3 -20z m49 -3 c1 -12 -2 -19 -7 -18 -5 2 -9 7 -9 11 1 4 1 15 1 24 0 23
13 7 15 -17z m-95 -4 c0 -2 -7 -7 -16 -10 -8 -3 -12 -2 -9 4 6 10 25 14 25 6z
m60 -26 c0 -5 -5 -10 -11 -10 -5 0 -7 5 -4 10 3 6 8 10 11 10 2 0 4 -4 4 -10z
m-60 -25 c-7 -8 -17 -12 -22 -9 -6 4 -14 0 -19 -7 -6 -10 -8 -7 -6 8 1 18 6
22 24 18 13 -2 23 1 23 7 0 6 3 8 6 5 4 -4 1 -13 -6 -22z m90 4 c0 -8 6 -7 18
2 15 13 16 12 3 -4 -9 -12 -17 -14 -26 -7 -6 5 -16 6 -20 2 -5 -4 -5 -1 -1 6
9 15 26 16 26 1z m-65 -19 c-3 -5 -11 -10 -16 -10 -6 0 -7 5 -4 10 3 6 11 10
16 10 6 0 7 -4 4 -10z m15 -20 c0 -5 -8 -10 -17 -10 -15 0 -16 2 -3 10 19 12
20 12 20 0z m25 1 c3 -5 2 -12 -3 -15 -5 -3 -9 1 -9 9 0 17 3 19 12 6z m-103
-32 c-29 -34 -32 -33 -25 2 4 20 11 27 28 27 l23 0 -26 -29z m48 -10 c0 -5 -7
-9 -15 -9 -15 0 -20 12 -9 23 8 8 24 -1 24 -14z m0 -55 c0 -8 -10 -3 -25 12
-14 14 -25 27 -25 30 0 2 11 -3 25 -12 14 -9 25 -22 25 -30z m73 31 c-3 -9 -8
-14 -10 -11 -3 3 -2 9 2 15 9 16 15 13 8 -4z m-23 -5 c0 -5 -2 -10 -4 -10 -3
0 -8 5 -11 10 -3 6 -1 10 4 10 6 0 11 -4 11 -10z m-156 -65 c-4 -8 1 -17 10
-21 20 -8 21 -24 1 -24 -8 0 -15 5 -15 10 0 6 -5 10 -11 10 -8 0 -7 -5 1 -15
20 -24 6 -28 -15 -5 -10 11 -13 20 -7 20 6 0 14 9 17 20 3 11 10 20 15 20 5 0
7 -7 4 -15z m82 -25 c8 0 14 -5 14 -11 0 -5 5 -7 10 -4 6 4 8 10 6 14 -3 4 1
8 9 8 8 0 16 -6 19 -13 3 -8 0 -11 -8 -8 -8 3 -17 0 -21 -6 -5 -8 -10 -8 -20
0 -9 8 -15 8 -20 0 -4 -6 -3 -9 2 -8 4 2 19 -5 32 -14 l23 -17 -40 -11 c-23
-6 -44 -15 -47 -20 -3 -6 -12 -10 -18 -10 -7 1 -2 9 11 20 l23 19 -30 -4 c-17
-2 -31 0 -31 3 0 12 20 37 20 26 0 -6 17 -11 38 -12 25 -1 32 1 23 7 -8 5 -15
22 -17 38 -1 15 0 22 3 16 2 -7 11 -13 19 -13z m154 -110 c0 -5 -5 -10 -11
-10 -5 0 -7 5 -4 10 3 6 8 10 11 10 2 0 4 -4 4 -10z m-106 -26 c9 -3 16 -11
16 -16 0 -6 -7 -5 -16 3 -13 10 -17 10 -25 -2 -5 -8 -9 -9 -9 -3 0 10 9 24 16
24 1 0 9 -3 18 -6z m16 -44 c12 -7 10 -9 -8 -7 -12 0 -22 5 -22 9 0 11 12 10
30 -2z m-70 -4 c0 -3 -4 -8 -10 -11 -5 -3 -10 -1 -10 4 0 6 5 11 10 11 6 0 10
-2 10 -4z m-97 -58 c-2 -18 1 -40 7 -48 9 -13 13 -12 30 9 21 24 27 47 10 36
-6 -3 -7 1 -4 9 8 21 17 20 31 -2 9 -15 7 -21 -9 -31 -11 -7 -17 -15 -14 -18
3 -3 -1 -15 -9 -27 -23 -32 -18 -42 8 -15 13 13 21 31 19 39 -3 13 -2 13 6 1
9 -12 15 -13 37 -3 34 16 40 15 21 -3 -8 -8 -21 -15 -30 -15 -19 0 -30 -17
-14 -23 7 -2 3 -2 -9 -1 -13 3 -27 -3 -35 -15 -12 -17 -16 -17 -33 -5 -12 9
-14 14 -5 14 10 0 10 3 -3 13 -25 19 -32 117 -8 117 4 0 5 -15 4 -32z m117 22
c0 -5 -7 -7 -15 -4 -8 4 -15 1 -15 -7 0 -7 -3 -10 -6 -6 -9 9 5 27 22 27 8 0
14 -4 14 -10z m40 -10 c0 -5 -2 -10 -4 -10 -3 0 -8 5 -11 10 -3 6 -1 10 4 10
6 0 11 -4 11 -10z m-20 -29 c0 -4 -7 -8 -15 -8 -16 0 -20 9 -9 20 8 8 24 -1
24 -12z m70 -61 c0 -5 -5 -10 -11 -10 -5 0 -7 5 -4 10 3 6 8 10 11 10 2 0 4
-4 4 -10z m-90 -69 c8 -15 8 -21 1 -17 -15 10 -44 -21 -37 -39 6 -17 -19 -21
-29 -5 -3 6 -1 10 5 10 6 0 8 5 5 10 -4 6 -15 8 -26 5 -26 -9 -24 7 5 32 20
17 26 19 30 7 3 -9 -1 -14 -11 -14 -13 0 -14 -3 -5 -12 10 -10 17 -7 34 10 13
13 17 22 10 22 -7 0 -10 5 -7 11 8 12 8 12 25 -20z m87 -17 c-3 -3 -12 -4 -19
-1 -8 3 -5 6 6 6 11 1 17 -2 13 -5z m48 -22 c-3 -3 -11 0 -18 7 -9 10 -8 11 6
5 10 -3 15 -9 12 -12z m-105 -7 c0 -8 -2 -15 -4 -15 -2 0 -6 7 -10 15 -3 8 -1
15 4 15 6 0 10 -7 10 -15z m-35 -24 c3 -5 1 -12 -5 -16 -5 -3 -10 1 -10 9 0
18 6 21 15 7z m72 -13 c2 -18 0 -20 -7 -8 -12 18 -13 30 -2 30 4 0 9 -10 9
-22z m-100 -84 c-3 -3 -12 -4 -19 -1 -8 3 -5 6 6 6 11 1 17 -2 13 -5z m63 -54
c6 -11 8 -20 6 -20 -3 0 -10 9 -16 20 -6 11 -8 20 -6 20 3 0 10 -9 16 -20z
m-30 -10 c0 -5 -9 -10 -21 -10 -16 0 -20 -4 -14 -17 5 -15 4 -16 -7 -5 -11 11
-10 16 6 28 23 16 36 18 36 4z m34 -86 c3 -8 2 -12 -4 -9 -6 3 -10 10 -10 16
0 14 7 11 14 -7z m-153 -73 c-11 -20 -51 -36 -51 -20 0 5 6 9 14 9 7 0 19 7
26 15 17 21 23 19 11 -4z m71 -26 c-2 -14 -8 -25 -12 -25 -4 0 -5 11 -2 25 2
14 8 25 12 25 4 0 5 -11 2 -25z m-45 -8 c7 -15 8 -29 2 -38 -9 -15 -13 -6 -10
24 1 9 -3 17 -8 17 -6 0 -11 -6 -11 -14 0 -21 -20 -30 -33 -17 -8 8 -7 14 2
24 11 10 13 9 8 -5 -4 -10 -2 -18 3 -18 6 0 10 8 10 18 0 37 22 42 37 9z m73
-17 c0 -5 -2 -10 -4 -10 -3 0 -8 5 -11 10 -3 6 -1 10 4 10 6 0 11 -4 11 -10z
m40 -60 c0 -5 -2 -10 -4 -10 -3 0 -8 5 -11 10 -3 6 -1 10 4 10 6 0 11 -4 11
-10z m-64 -20 c0 -12 -4 -16 -9 -11 -5 5 -6 14 -3 20 10 15 12 14 12 -9z m-66
-41 c-13 -24 -16 -24 -22 -1 -4 12 1 18 13 19 16 2 17 -2 9 -18z m-17 -44 c-3
-9 -8 -14 -10 -11 -3 3 -2 9 2 15 9 16 15 13 8 -4z m-23 -14 c0 -4 -7 -8 -15
-8 -8 0 -15 6 -15 13 0 8 6 11 15 8 8 -4 15 -9 15 -13z m27 -27 c-3 -3 -12 -4
-19 -1 -8 3 -5 6 6 6 11 1 17 -2 13 -5z m19 -47 c26 10 14 -5 -15 -20 -26 -13
-30 -13 -35 0 -3 8 -2 12 3 9 5 -3 12 2 16 12 5 11 9 13 12 5 2 -7 11 -9 19
-6z m114 -7 c0 -5 -2 -10 -4 -10 -3 0 -8 5 -11 10 -3 6 -1 10 4 10 6 0 11 -4
11 -10z m-175 -31 c11 -17 -1 -21 -15 -4 -8 9 -8 15 -2 15 6 0 14 -5 17 -11z
m110 -59 c3 -5 1 -10 -4 -10 -6 0 -11 5 -11 10 0 6 2 10 4 10 3 0 8 -4 11 -10z
m-50 -10 c3 -5 1 -10 -4 -10 -6 0 -11 5 -11 10 0 6 2 10 4 10 3 0 8 -4 11 -10z
m-75 -48 c0 -15 -2 -15 -10 -2 -13 20 -13 33 0 25 6 -3 10 -14 10 -23z m40
-42 c-8 -5 -19 -10 -25 -10 -5 0 -3 5 5 10 8 5 20 10 25 10 6 0 3 -5 -5 -10z
m-134 -16 c-5 -13 -1 -15 21 -9 22 5 26 4 16 -6 -10 -10 -10 -16 0 -28 6 -8 8
-12 2 -9 -5 3 -27 13 -47 23 -35 16 -55 41 -24 29 8 -3 17 -1 21 5 10 17 18
13 11 -5z m74 -13 c0 -6 -4 -13 -10 -16 -5 -3 -10 1 -10 9 0 9 5 16 10 16 6 0
10 -4 10 -9z m-60 -41 c0 -5 -4 -10 -10 -10 -5 0 -10 5 -10 10 0 6 5 10 10 10
6 0 10 -4 10 -10z m155 -30 c3 -5 -1 -10 -10 -10 -9 0 -13 5 -10 10 3 6 8 10
10 10 2 0 7 -4 10 -10z m-152 -25 c-3 -8 -11 -15 -19 -15 -12 0 -12 4 -2 19
13 22 30 18 21 -4z m77 5 c0 -5 -2 -10 -4 -10 -3 0 -8 5 -11 10 -3 6 -1 10 4
10 6 0 11 -4 11 -10z m-49 -83 c-10 -9 -11 -8 -5 6 3 10 9 15 12 12 3 -3 0
-11 -7 -18z m26 -9 c-3 -8 -6 -5 -6 6 -1 11 2 17 5 13 3 -3 4 -12 1 -19z m-57
-8 c0 -5 -5 -10 -11 -10 -5 0 -7 5 -4 10 3 6 8 10 11 10 2 0 4 -4 4 -10z m-77
-23 c3 -8 -1 -14 -9 -14 -15 0 -18 9 -7 20 9 9 10 9 16 -6z m127 9 c0 -2 -8
-10 -17 -17 -16 -13 -17 -12 -4 4 13 16 21 21 21 13z m60 -16 c0 -5 -2 -10 -4
-10 -3 0 -8 5 -11 10 -3 6 -1 10 4 10 6 0 11 -4 11 -10z m-130 -35 c0 -2 -7
-5 -15 -9 -9 -3 -15 0 -15 9 0 9 6 12 15 9 8 -4 15 -7 15 -9z m60 5 c0 -5 -5
-10 -11 -10 -5 0 -7 5 -4 10 3 6 8 10 11 10 2 0 4 -4 4 -10z m-193 -26 c-9 -9
-28 6 -21 18 4 6 10 6 17 -1 6 -6 8 -13 4 -17z m83 16 c0 -5 -2 -10 -4 -10 -3
0 -8 5 -11 10 -3 6 -1 10 4 10 6 0 11 -4 11 -10z m-17 -26 c13 -18 14 -24 5
-30 -7 -4 -10 -4 -6 1 4 4 0 14 -8 23 -14 13 -17 13 -25 1 -5 -8 -9 -11 -9 -7
0 3 -3 13 -6 22 -9 24 29 16 49 -10z m72 -4 c3 -5 1 -10 -4 -10 -6 0 -11 5
-11 10 0 6 2 10 4 10 3 0 8 -4 11 -10z m-212 -6 c-7 -3 -9 -12 -6 -20 6 -16
-12 -19 -22 -4 -9 14 3 30 23 29 10 0 12 -3 5 -5z m-30 -55 c-6 -6 -14 -5 -22
5 -18 22 -4 40 16 20 10 -10 12 -19 6 -25z m244 25 c-3 -3 -12 -4 -19 -1 -8 3
-5 6 6 6 11 1 17 -2 13 -5z m-52 -32 c-8 -8 -25 10 -19 20 4 6 9 5 15 -3 4 -7
6 -15 4 -17z m-74 -21 c-13 -8 -13 -12 -1 -28 13 -17 13 -17 -4 -1 -19 16 -15
38 7 38 8 0 7 -4 -2 -9z m43 -23 c-10 -16 -22 -7 -17 13 4 15 8 17 14 8 4 -7
5 -17 3 -21z m-84 -32 c0 -3 -4 -8 -10 -11 -5 -3 -10 -1 -10 4 0 6 5 11 10 11
6 0 10 -2 10 -4z m-71 -21 c8 0 16 -6 18 -13 3 -8 -3 -11 -19 -8 -12 3 -26 5
-30 5 -5 1 -8 8 -8 17 0 10 4 12 13 7 6 -4 18 -8 26 -8z m44 -20 c-7 -21 -13
-19 -13 6 0 11 4 18 10 14 5 -3 7 -12 3 -20z m57 5 c0 -5 -5 -10 -11 -10 -5 0
-7 5 -4 10 3 6 8 10 11 10 2 0 4 -4 4 -10z m-136 -6 c9 -3 13 -11 9 -18 -10
-16 -13 -36 -4 -36 4 0 11 11 17 25 l9 26 27 -24 27 -24 -32 -23 c-18 -13 -26
-17 -20 -8 7 8 10 18 6 21 -3 4 2 7 12 7 15 0 16 2 4 16 -12 15 -15 14 -24
-10 -10 -25 -12 -25 -34 -10 -16 12 -20 19 -12 27 6 6 11 15 11 20 0 13 -29
-12 -42 -36 -9 -17 -8 -19 6 -14 9 4 16 4 16 1 0 -5 -25 -43 -46 -73 -2 -1 -7
0 -13 3 -6 4 -4 13 7 24 11 11 17 32 17 54 -1 21 2 35 7 32 4 -3 11 2 14 10 7
17 14 19 38 10z m101 -24 c3 -5 1 -10 -4 -10 -6 0 -11 5 -11 10 0 6 2 10 4 10
3 0 8 -4 11 -10z m105 -10 c0 -5 -5 -10 -11 -10 -5 0 -7 5 -4 10 3 6 8 10 11
10 2 0 4 -4 4 -10z m-97 -25 c-3 -9 -8 -14 -10 -11 -3 3 -2 9 2 15 9 16 15 13
8 -4z m-105 -33 c-10 -2 -18 -8 -18 -13 0 -6 -4 -7 -10 -4 -15 9 12 34 30 27
12 -5 12 -7 -2 -10z m59 -14 c-3 -8 -6 -5 -6 6 -1 11 2 17 5 13 3 -3 4 -12 1
-19z m-21 -14 c18 -14 18 -15 -6 -8 -31 8 -50 24 -29 24 8 0 24 -7 35 -16z
m-56 -9 c9 5 11 4 6 -3 -4 -7 -1 -12 10 -12 13 0 14 -3 5 -13 -6 -8 -7 -18 -3
-22 4 -5 1 -5 -6 -1 -7 4 -10 12 -7 17 4 5 -1 9 -9 9 -9 0 -16 2 -16 4 0 2 -3
13 -6 23 -4 14 -4 15 4 4 6 -8 15 -10 22 -6z m260 11 c0 -3 -4 -8 -10 -11 -5
-3 -10 -1 -10 4 0 6 5 11 10 11 6 0 10 -2 10 -4z m-296 -48 c-3 -5 -12 -7 -19
-4 -7 2 -18 -1 -24 -7 -12 -12 -14 -7 -5 16 3 9 14 12 29 9 14 -2 22 -9 19
-14z m-14 -34 c-12 -13 -10 -14 14 -3 23 11 29 10 36 -1 5 -8 7 -17 4 -19 -3
-3 -8 0 -12 6 -6 9 -14 9 -35 -2 -24 -13 -27 -12 -27 4 0 20 8 31 23 31 5 0 4
-7 -3 -16z m-64 -19 c-1 -25 -7 -31 -19 -19 -4 5 13 44 19 44 1 0 1 -11 0 -25z
m31 -1 c1 -18 -2 -23 -9 -16 -6 6 -8 18 -5 26 9 22 12 20 14 -10z m123 -4 c0
-5 -5 -10 -11 -10 -5 0 -7 5 -4 10 3 6 8 10 11 10 2 0 4 -4 4 -10z m-83 -41
c4 -16 8 -17 14 -7 5 8 9 9 9 2 0 -6 -7 -17 -16 -24 -8 -8 -14 -9 -12 -4 1 5
-3 19 -10 32 -9 16 -9 22 -1 22 6 0 13 -9 16 -21z m83 -10 c0 -6 -4 -7 -10 -4
-5 3 -10 11 -10 16 0 6 5 7 10 4 6 -3 10 -11 10 -16z m-132 -45 c5 -3 -22 -59
-33 -66 -5 -4 -6 -8 -1 -8 5 0 1 -9 -9 -20 -18 -20 -51 -28 -40 -10 4 6 10 8
15 5 4 -3 19 17 34 44 21 41 23 50 11 55 -8 3 -15 11 -15 17 0 8 5 7 18 -2 9
-7 18 -14 20 -15z m51 -24 c-6 -4 -9 -12 -6 -17 3 -5 -4 -10 -16 -10 -15 -2
-18 0 -8 6 9 6 10 11 2 15 -6 4 -11 12 -11 18 0 6 6 6 15 -2 13 -11 14 -10 8
6 -6 17 -5 17 11 5 12 -10 14 -16 5 -21z m-12 -70 c-2 -23 -10 -17 -12 10 -1
10 2 17 6 14 4 -2 7 -13 6 -24z m-147 -9 c0 -17 -18 -21 -24 -6 -3 9 0 15 9
15 8 0 15 -4 15 -9z m120 -1 c0 -5 -8 -10 -17 -10 -15 0 -16 2 -3 10 19 12 20
12 20 0z m24 -62 c-3 -4 -11 -5 -19 -1 -21 7 -19 12 4 10 11 0 18 -5 15 -9z
m101 -37 c-3 -6 -11 -11 -16 -11 -5 0 -4 6 3 14 14 16 24 13 13 -3z m-105 -7
c0 -8 -5 -12 -10 -9 -6 4 -8 11 -5 16 9 14 15 11 15 -7z m63 -29 c-3 -9 -8
-14 -10 -11 -3 3 -2 9 2 15 9 16 15 13 8 -4z m-133 -15 c0 -5 -5 -10 -11 -10
-5 0 -7 5 -4 10 3 6 8 10 11 10 2 0 4 -4 4 -10z m-67 -111 c-9 -34 -21 -31
-20 6 1 25 4 32 13 24 7 -5 10 -19 7 -30z m-76 -13 c0 -8 -8 -11 -20 -8 -14 4
-16 7 -5 13 19 12 25 11 25 -5z m33 4 c0 -5 -2 -10 -4 -10 -3 0 -8 5 -11 10
-3 6 -1 10 4 10 6 0 11 -4 11 -10z m-65 -33 c6 -5 4 -7 -5 -6 -29 3 -41 -1
-35 -11 3 -5 2 -10 -4 -10 -5 0 -9 9 -8 20 1 12 7 18 14 16 7 -3 13 0 13 6 0
6 3 7 8 2 4 -5 12 -12 17 -17z m63 -25 c8 -22 7 -29 -4 -29 -7 0 -11 4 -8 9 3
5 -2 18 -12 29 -15 16 -15 19 -2 19 9 0 20 -13 26 -28z m-48 -16 c0 -2 -8 -10
-17 -17 -16 -13 -17 -12 -4 4 13 16 21 21 21 13z m-76 -51 c-5 -11 -2 -14 12
-9 20 8 19 6 -10 -16 -13 -10 -17 -10 -12 -2 4 7 2 12 -5 12 -8 0 -8 4 1 15
16 19 21 19 14 0z m3 -61 c-3 -3 -12 -4 -19 -1 -8 3 -5 6 6 6 11 1 17 -2 13
-5z m8 -34 c3 -5 1 -10 -4 -10 -6 0 -11 5 -11 10 0 6 2 10 4 10 3 0 8 -4 11
-10z m-89 -35 c25 -21 31 -32 23 -41 -7 -8 -7 -14 1 -19 5 -3 10 -10 10 -16 0
-5 -8 -1 -18 9 -10 9 -14 19 -10 20 16 7 7 23 -23 41 -18 11 -38 17 -45 14 -8
-3 -14 1 -14 8 -1 9 -4 8 -11 -4 -6 -9 -15 -15 -20 -11 -6 4 -6 10 1 19 17 20
70 10 106 -20z m44 15 c-13 -24 -14 -24 -30 -5 -11 13 -10 14 3 10 8 -4 18 -2
22 4 11 19 16 12 5 -9z m90 10 c0 -5 -7 -7 -15 -4 -8 4 -15 8 -15 10 0 2 7 4
15 4 8 0 15 -4 15 -10z m-190 -52 c0 -6 -7 -5 -15 2 -8 7 -15 17 -15 22 0 6 7
5 15 -2 8 -7 15 -17 15 -22z m120 11 c0 -5 5 -7 12 -3 7 4 8 3 4 -4 -4 -6 -13
-9 -21 -5 -17 6 -20 23 -5 23 6 0 10 -5 10 -11z m-160 -26 c0 -9 6 -13 15 -9
8 3 15 1 15 -4 0 -6 -6 -10 -13 -10 -15 0 -48 36 -40 44 9 9 23 -4 23 -21z
m347 -15 c-3 -8 -6 -5 -6 6 -1 11 2 17 5 13 3 -3 4 -12 1 -19z m-264 -8 c14
-17 14 -20 2 -20 -8 0 -15 7 -15 16 0 8 -4 12 -10 9 -5 -3 -10 -1 -10 4 0 17
14 13 33 -9z m-183 -20 c0 -5 -2 -10 -4 -10 -3 0 -8 5 -11 10 -3 6 -1 10 4 10
6 0 11 -4 11 -10z m154 2 c2 -4 -7 -8 -22 -9 -24 -2 -24 -1 -7 7 11 5 21 9 22
9 1 1 4 -3 7 -7z m-74 -24 c0 -10 3 -9 9 1 5 7 11 9 14 4 3 -5 -4 -20 -15 -33
-15 -19 -18 -20 -14 -6 4 10 1 25 -5 32 -8 10 -8 14 0 14 6 0 11 -6 11 -12z
m36 -47 c0 -11 -4 -17 -9 -14 -4 2 -16 -1 -25 -8 -9 -8 -6 -1 7 14 14 15 25
27 26 27 0 0 1 -9 1 -19z m104 9 c0 -5 -5 -10 -11 -10 -5 0 -7 5 -4 10 3 6 8
10 11 10 2 0 4 -4 4 -10z m-260 -16 c0 -11 -68 -83 -73 -78 -9 9 5 44 17 44 6
0 18 9 26 20 14 19 30 27 30 14z m100 -24 c0 -5 -5 -10 -11 -10 -5 0 -7 5 -4
10 3 6 8 10 11 10 2 0 4 -4 4 -10z m-50 -69 c0 -4 -6 -8 -14 -8 -8 0 -12 6 -9
14 5 13 23 9 23 -6z m118 -56 c-3 -3 -9 2 -12 12 -6 14 -5 15 5 6 7 -7 10 -15
7 -18z m-198 -49 c0 -3 -4 -8 -10 -11 -5 -3 -10 -1 -10 4 0 6 5 11 10 11 6 0
10 -2 10 -4z m-89 -33 c13 -15 12 -16 -8 -11 -13 4 -25 2 -28 -3 -3 -4 -12 -6
-21 -2 -8 3 -24 -3 -35 -13 -19 -17 -20 -17 -13 1 5 12 4 16 -4 11 -8 -5 -10
-2 -5 9 3 10 8 13 12 6 4 -6 12 -6 20 -1 8 4 20 6 27 3 6 -2 15 0 19 6 9 15
20 14 36 -6z m39 -3 c0 -5 -4 -10 -10 -10 -5 0 -10 5 -10 10 0 6 5 10 10 10 6
0 10 -4 10 -10z m60 6 c0 -2 -9 -6 -20 -9 -11 -3 -20 -1 -20 4 0 5 9 9 20 9
11 0 20 -2 20 -4z m-155 -54 c-8 -8 -25 10 -19 20 4 6 9 5 15 -3 4 -7 6 -15 4
-17z m75 -15 c0 -6 -9 0 -20 13 -11 13 -20 25 -20 28 0 3 9 -3 20 -13 11 -10
20 -23 20 -28z m-100 2 c0 -6 -4 -7 -10 -4 -5 3 -10 1 -10 -5 0 -6 -4 -8 -10
-5 -16 10 -11 21 10 22 11 1 20 -3 20 -8z m25 -19 c-20 -9 -17 -11 19 -14 11
0 21 -8 23 -16 4 -12 3 -13 -5 -1 -5 7 -15 10 -21 6 -7 -4 -18 -1 -26 5 -12
10 -15 9 -15 -6 0 -14 -2 -16 -9 -6 -7 11 -9 11 -14 -2 -4 -9 -11 -16 -16 -16
-11 0 -2 40 10 41 5 1 13 2 18 3 5 0 13 4 17 9 4 4 14 7 23 6 12 0 11 -3 -4
-9z m-85 -51 c0 -5 -4 -9 -10 -9 -5 0 -10 7 -10 16 0 8 5 12 10 9 6 -3 10 -10
10 -16z m105 1 c3 -5 1 -10 -4 -10 -6 0 -11 5 -11 10 0 6 2 10 4 10 3 0 8 -4
11 -10z m-8 -46 c-3 -3 -12 -4 -19 -1 -8 3 -5 6 6 6 11 1 17 -2 13 -5z m-87
-38 c0 -3 -4 -8 -10 -11 -5 -3 -10 -1 -10 4 0 6 5 11 10 11 6 0 10 -2 10 -4z
m-95 -35 c-3 -5 6 -22 20 -37 14 -15 23 -29 21 -31 -8 -8 -56 41 -56 56 0 13
-2 13 -9 2 -5 -8 -14 -10 -22 -6 -9 6 -8 10 7 16 27 11 46 11 39 0z m-28 -51
c9 0 13 -3 10 -7 -10 -10 -57 18 -50 30 3 5 10 2 15 -7 5 -9 16 -16 25 -16z
m123 -4 c0 -2 -8 -10 -17 -17 -16 -13 -17 -12 -4 4 13 16 21 21 21 13z m-200
-16 c0 -5 -7 -10 -15 -10 -8 0 -15 5 -15 10 0 6 7 10 15 10 8 0 15 -4 15 -10z
m44 1 c3 -5 -1 -11 -9 -14 -9 -4 -12 -1 -8 9 6 16 10 17 17 5z m36 -22 c0 -5
-4 -7 -10 -4 -5 3 -10 1 -10 -4 0 -6 -5 -11 -11 -11 -8 0 -8 5 1 15 14 17 30
20 30 4z m-70 -19 c-20 -13 -33 -13 -25 0 3 6 14 10 23 10 15 0 15 -2 2 -10z
m-80 -45 c0 -2 -9 -9 -20 -15 -12 -6 -20 -7 -20 -1 0 5 8 12 18 14 9 3 18 5
20 6 1 0 2 -1 2 -4z m20 -9 c0 -2 -8 -10 -17 -17 -16 -13 -17 -12 -4 4 13 16
21 21 21 13z m14 -21 c-9 -14 -18 -25 -21 -25 -5 0 5 18 20 38 17 22 18 13 1
-13z m36 1 c0 -3 -4 -8 -10 -11 -5 -3 -10 -1 -10 4 0 6 5 11 10 11 6 0 10 -2
10 -4z m-197 -31 c-3 -9 -8 -14 -10 -11 -3 3 -2 9 2 15 9 16 15 13 8 -4z m117
-30 c-7 -9 -15 -13 -17 -11 -7 7 7 26 19 26 6 0 6 -6 -2 -15z m-73 -11 c-3 -3
-12 -4 -19 -1 -8 3 -5 6 6 6 11 1 17 -2 13 -5z m38 -5 c11 -16 1 -19 -13 -3
-7 8 -8 14 -3 14 5 0 13 -5 16 -11z m96 -22 c-10 -9 -11 -8 -5 6 3 10 9 15 12
12 3 -3 0 -11 -7 -18z m-157 5 c2 -4 -6 -14 -18 -23 -20 -15 -21 -15 -21 5 0
21 29 34 39 18z m101 -11 c3 -5 2 -12 -3 -15 -5 -3 -9 1 -9 9 0 17 3 19 12 6z
m-25 -20 c0 -5 -9 -7 -20 -4 -11 3 -20 7 -20 9 0 2 9 4 20 4 11 0 20 -4 20 -9z
m-175 -22 c-4 -5 -1 -9 4 -9 6 0 11 -4 11 -10 0 -5 -7 -7 -15 -4 -8 4 -15 15
-15 26 0 10 5 16 10 13 6 -4 8 -11 5 -16z m-30 1 c3 -5 1 -10 -4 -10 -6 0 -11
5 -11 10 0 6 2 10 4 10 3 0 8 -4 11 -10z m119 -32 c-3 -5 -12 -4 -20 3 -19 16
-18 18 6 12 11 -3 17 -9 14 -15z m-24 -28 c0 -5 -5 -10 -11 -10 -5 0 -7 5 -4
10 3 6 8 10 11 10 2 0 4 -4 4 -10z m-279 -101 c-6 -16 -18 -25 -34 -27 -31 -2
-40 8 -25 28 8 12 9 12 4 -2 -4 -14 0 -17 19 -16 16 2 25 9 25 19 0 8 3 19 7
22 12 12 14 0 4 -24z m103 -5 c5 -13 4 -14 -7 -6 -8 7 -18 8 -22 4 -5 -4 -5
-1 -1 6 10 17 23 15 30 -4z m51 -12 c-3 -3 -11 0 -18 7 -9 10 -8 11 6 5 10 -3
15 -9 12 -12z m-257 -4 c9 -9 12 -9 12 3 0 7 6 3 13 -11 13 -23 11 -27 -21
-57 -39 -37 -58 -43 -42 -14 5 11 7 28 4 38 -5 15 -3 14 7 -2 17 -28 16 -28
29 -20 9 6 9 10 -1 16 -11 7 -10 9 4 9 9 0 17 5 17 11 0 5 -4 8 -9 4 -5 -3
-13 0 -16 6 -4 5 -13 8 -21 5 -8 -3 -11 0 -7 10 6 17 15 18 31 2z m242 -33 c0
-2 -6 -5 -13 -8 -8 -3 -14 1 -14 8 0 7 6 11 14 8 7 -3 13 -6 13 -8z m-67 -10
c-3 -9 -8 -14 -10 -11 -3 3 -2 9 2 15 9 16 15 13 8 -4z m-83 -10 c11 -13 10
-14 -4 -9 -9 3 -16 10 -16 15 0 13 6 11 20 -6z m-35 -11 c13 -5 14 -8 3 -15
-19 -13 -28 -11 -28 6 0 17 2 18 25 9z m-90 -50 c13 -5 14 -9 4 -15 -7 -4 -12
-21 -12 -38 0 -17 -3 -31 -7 -31 -3 0 -6 20 -6 45 1 25 2 45 3 45 1 0 9 -3 18
-6z m75 -18 c0 -2 -8 -10 -17 -17 -16 -13 -17 -12 -4 4 13 16 21 21 21 13z
m-264 -30 c2 -20 -1 -22 -11 -13 -9 8 -10 16 -3 25 13 16 13 16 14 -12z m104
-2 c0 -2 -9 0 -20 6 -11 6 -20 13 -20 16 0 2 9 0 20 -6 11 -6 20 -13 20 -16z
m34 1 c3 -8 1 -15 -3 -15 -5 0 -11 7 -15 15 -3 8 -1 15 3 15 5 0 11 -7 15 -15z
m81 -5 c3 -6 -1 -7 -9 -4 -18 7 -21 14 -7 14 6 0 13 -4 16 -10z m-158 -50 c-2
-24 -17 -15 -17 11 0 10 -4 19 -10 19 -5 0 -10 5 -10 12 0 6 8 4 19 -6 11 -10
19 -26 18 -36z m-91 13 c-4 -9 -2 -19 4 -23 6 -4 4 -13 -6 -26 -15 -18 -15
-18 -9 4 4 13 2 22 -4 22 -8 0 -7 7 1 20 16 24 22 26 14 3z m161 11 c-3 -3
-12 -4 -19 -1 -8 3 -5 6 6 6 11 1 17 -2 13 -5z m78 -4 c3 -5 1 -10 -4 -10 -6
0 -11 5 -11 10 0 6 2 10 4 10 3 0 8 -4 11 -10z m-189 -13 c10 4 12 0 8 -10 -5
-13 -9 -14 -24 -5 -10 7 -16 17 -13 22 4 6 8 6 10 -1 3 -7 11 -9 19 -6z m104
-12 c0 -2 -9 -3 -19 -2 -11 0 -18 5 -15 9 4 6 34 0 34 -7z m-217 -15 c-10 -11
-21 -20 -25 -20 -4 0 0 9 9 20 10 11 21 20 25 20 4 0 0 -9 -9 -20z m-97 -25
c20 -10 23 -15 12 -15 -10 0 -18 -5 -18 -11 0 -6 7 -9 15 -5 12 4 13 2 3 -14
-7 -10 -16 -16 -20 -14 -5 3 -6 10 -3 15 4 5 2 9 -3 9 -5 0 -12 11 -14 25 -6
29 -8 29 28 10z m114 5 c0 -5 -5 -10 -11 -10 -5 0 -7 5 -4 10 3 6 8 10 11 10
2 0 4 -4 4 -10z m70 -31 c0 -5 -4 -9 -10 -9 -5 0 -10 7 -10 16 0 8 5 12 10 9
6 -3 10 -10 10 -16z m-117 -2 c3 -7 -3 -13 -14 -13 -13 0 -15 3 -7 13 6 7 12
13 13 13 2 0 5 -6 8 -13z m77 1 c0 -5 -11 -13 -24 -19 -14 -7 -22 -17 -20 -24
3 -7 1 -16 -5 -19 -14 -9 -9 36 7 55 14 17 42 21 42 7z m82 -4 c-13 -9 -21
-22 -18 -30 3 -8 1 -14 -4 -14 -6 0 -10 5 -10 12 0 15 30 48 44 48 6 0 0 -7
-12 -16z m-157 -34 c3 -5 1 -10 -4 -10 -6 0 -11 5 -11 10 0 6 2 10 4 10 3 0 8
-4 11 -10z m179 -2 c-3 -4 -9 -8 -15 -8 -5 0 -9 4 -9 8 0 5 7 9 15 9 8 0 12
-4 9 -9z m-94 -18 c0 -5 -4 -10 -9 -10 -6 0 -13 5 -16 10 -3 6 1 10 9 10 9 0
16 -4 16 -10z m-80 -8 c0 -13 -12 -22 -22 -16 -10 6 -1 24 13 24 5 0 9 -4 9
-8z m115 -12 c3 -5 -1 -10 -10 -10 -9 0 -13 5 -10 10 3 6 8 10 10 10 2 0 7 -4
10 -10z m-40 -90 c3 -6 -1 -7 -9 -4 -18 7 -21 14 -7 14 6 0 13 -4 16 -10z m45
-75 c13 -14 21 -25 18 -25 -2 0 -15 11 -28 25 -13 14 -21 25 -18 25 2 0 15
-11 28 -25z"/>
<path d="M5300 7516 c0 -2 7 -7 16 -10 8 -3 12 -2 9 4 -6 10 -25 14 -25 6z"/>
<path d="M4898 8584 c21 -15 26 -15 55 0 l32 16 -55 0 c-53 0 -54 -1 -32 -16z"/>
<path d="M4800 8580 c0 -5 5 -10 11 -10 5 0 7 5 4 10 -3 6 -8 10 -11 10 -2 0
-4 -4 -4 -10z"/>
<path d="M4755 8560 c-3 -5 -1 -10 4 -10 6 0 11 5 11 10 0 6 -2 10 -4 10 -3 0
-8 -4 -11 -10z"/>
<path d="M4935 8550 c3 -5 8 -10 11 -10 2 0 4 5 4 10 0 6 -5 10 -11 10 -5 0
-7 -4 -4 -10z"/>
<path d="M4796 8538 c3 -4 9 -8 15 -8 5 0 9 4 9 8 0 5 -7 9 -15 9 -8 0 -12 -4
-9 -9z"/>
<path d="M4923 8525 c7 -14 18 -25 26 -25 10 0 7 8 -9 25 -29 31 -31 31 -17 0z"/>
<path d="M4967 8503 c1 -20 -3 -40 -9 -44 -17 -11 -38 1 -38 21 0 10 -9 20
-21 23 -20 5 -20 5 -4 -13 13 -14 13 -19 3 -23 -7 -2 -1 -8 15 -12 21 -6 25
-10 17 -21 -7 -7 -19 -10 -28 -8 -14 4 -13 3 1 -6 16 -10 21 -8 33 9 18 25 48
17 41 -10 -3 -11 -2 -19 3 -19 12 0 21 30 13 43 -10 16 -11 77 -1 77 4 0 8 5
8 10 0 6 -8 10 -18 10 -15 0 -18 -7 -15 -37z"/>
<path d="M4816 8515 c-18 -14 -18 -15 -2 -15 11 0 15 -5 10 -12 -4 -7 -3 -10
1 -5 7 5 16 49 11 47 -1 0 -10 -7 -20 -15z"/>
<path d="M4760 8470 c8 -5 20 -10 25 -10 6 0 3 5 -5 10 -8 5 -19 10 -25 10 -5
0 -3 -5 5 -10z"/>
<path d="M4841 8404 c0 -11 3 -14 6 -6 3 7 2 16 -1 19 -3 4 -6 -2 -5 -13z"/>
<path d="M4871 8409 c0 -9 6 -22 14 -29 10 -9 15 -9 15 -1 0 6 -4 11 -9 11 -5
0 -12 8 -14 18 -4 14 -5 14 -6 1z"/>
<path d="M3790 8372 c-78 -31 -162 -72 -125 -60 22 7 230 90 234 94 12 11 -23
0 -109 -34z"/>
<path d="M4915 8390 c-8 -13 3 -30 18 -29 9 0 9 2 0 5 -7 3 -9 12 -6 20 6 16
-3 19 -12 4z"/>
<path d="M4940 8390 c0 -5 5 -10 10 -10 6 0 10 5 10 10 0 6 -4 10 -10 10 -5 0
-10 -4 -10 -10z"/>
<path d="M4966 8374 c-10 -27 -7 -36 9 -20 8 8 15 19 15 25 0 17 -17 13 -24
-5z"/>
<path d="M4872 8358 c5 -15 28 -23 28 -10 0 5 -7 13 -16 16 -10 4 -14 1 -12
-6z"/>
<path d="M4900 8320 c-9 -6 -10 -10 -3 -10 6 0 15 5 18 10 8 12 4 12 -15 0z"/>
<path d="M3508 8244 c-71 -35 -128 -66 -128 -69 0 -5 259 122 269 131 16 15
-31 -6 -141 -62z"/>
<path d="M4927 8299 c7 -7 15 -10 18 -7 3 3 -2 9 -12 12 -14 6 -15 5 -6 -5z"/>
<path d="M4950 8271 c0 -6 4 -13 10 -16 6 -3 7 1 4 9 -7 18 -14 21 -14 7z"/>
<path d="M4931 8254 c0 -11 3 -14 6 -6 3 7 2 16 -1 19 -3 4 -6 -2 -5 -13z"/>
<path d="M4980 8262 c0 -4 12 -12 26 -19 17 -8 24 -8 22 -1 -5 13 -48 31 -48
20z"/>
<path d="M4894 8251 c4 -6 2 -19 -5 -27 -10 -12 -9 -13 5 -8 19 7 21 30 4 40
-7 4 -8 3 -4 -5z"/>
<path d="M4925 8220 c-3 -5 -1 -10 4 -10 6 0 11 5 11 10 0 6 -2 10 -4 10 -3 0
-8 -4 -11 -10z"/>
<path d="M4996 8215 c10 -8 23 -15 28 -15 6 0 1 7 -10 15 -10 8 -23 15 -28 15
-6 0 -1 -7 10 -15z"/>
<path d="M4949 8187 c13 -16 13 -20 0 -28 -11 -7 -11 -9 4 -9 9 0 17 6 17 14
0 7 -8 20 -17 27 -17 13 -17 12 -4 -4z"/>
<path d="M5003 8174 c-15 -16 -16 -24 -4 -24 8 0 24 30 19 35 -2 2 -9 -3 -15
-11z"/>
<path d="M4856 8165 c-11 -8 -15 -15 -9 -15 6 0 16 7 23 15 16 19 11 19 -14 0z"/>
<path d="M3338 8154 c-38 -20 -36 -28 2 -9 17 9 30 18 30 20 0 7 -1 6 -32 -11z"/>
<path d="M4916 8137 c3 -10 9 -15 12 -12 3 3 0 11 -7 18 -10 9 -11 8 -5 -6z"/>
<path d="M5003 8130 c-13 -5 -23 -12 -23 -14 0 -3 7 -3 15 0 8 4 15 1 15 -5 0
-6 4 -11 9 -11 6 0 9 9 8 20 -1 11 -1 20 -2 19 0 0 -10 -4 -22 -9z"/>
<path d="M3274 8114 c-18 -14 -18 -15 4 -4 12 6 22 13 22 15 0 8 -5 6 -26 -11z"/>
<path d="M3224 8084 c-18 -14 -18 -15 4 -4 12 6 22 13 22 15 0 8 -5 6 -26 -11z"/>
<path d="M4954 8088 c-4 -7 -3 -8 5 -4 6 4 19 2 27 -5 12 -9 17 -10 27 0 9 10
8 11 -4 6 -10 -4 -20 -2 -24 4 -8 14 -22 14 -31 -1z"/>
<path d="M5029 8068 c-7 -18 -14 -36 -17 -40 -2 -5 1 -8 6 -8 5 0 12 9 15 20
6 22 36 27 54 9 8 -8 13 -8 18 1 9 15 4 20 -29 22 -17 2 -25 7 -22 15 3 7 1
13 -3 13 -5 0 -15 -15 -22 -32z"/>
<path d="M4907 8069 c7 -7 15 -10 18 -7 3 3 -2 9 -12 12 -14 6 -15 5 -6 -5z"/>
<path d="M4886 8057 c3 -10 9 -15 12 -12 3 3 0 11 -7 18 -10 9 -11 8 -5 -6z"/>
<path d="M4990 8049 c0 -5 5 -7 10 -4 6 3 10 8 10 11 0 2 -4 4 -10 4 -5 0 -10
-5 -10 -11z"/>
<path d="M5109 8039 c-11 -6 -11 -11 -1 -21 9 -9 12 -9 12 3 1 8 6 4 14 -10
14 -25 31 -15 20 12 -7 20 -27 27 -45 16z"/>
<path d="M5066 8025 c4 -10 0 -15 -12 -15 -16 0 -16 -2 -4 -10 9 -5 19 -5 27
2 13 10 12 -4 -3 -79 -2 -13 0 -23 6 -23 5 0 10 5 10 10 0 6 7 10 15 10 17 0
21 35 5 45 -14 9 -1 27 13 19 7 -4 -1 7 -17 24 -32 34 -49 41 -40 17z m44 -86
c0 -6 -4 -7 -10 -4 -5 3 -10 11 -10 16 0 6 5 7 10 4 6 -3 10 -11 10 -16z"/>
<path d="M4910 8022 c0 -6 9 -12 20 -15 11 -3 20 -3 20 -1 0 2 -9 8 -20 14
-11 6 -20 7 -20 2z"/>
<path d="M4989 7993 c-13 -16 -12 -17 4 -4 9 7 17 15 17 17 0 8 -8 3 -21 -13z"/>
<path d="M5148 7979 c-22 -28 -14 -53 12 -36 14 8 16 14 7 20 -9 7 -9 10 1 14
13 5 17 23 5 23 -5 0 -16 -10 -25 -21z"/>
<path d="M3045 7964 l-30 -26 33 22 c17 12 32 23 32 26 0 7 -4 5 -35 -22z"/>
<path d="M5020 7979 c0 -5 5 -7 10 -4 6 3 10 8 10 11 0 2 -4 4 -10 4 -5 0 -10
-5 -10 -11z"/>
<path d="M5045 7960 c-3 -5 -2 -10 4 -10 5 0 13 5 16 10 3 6 2 10 -4 10 -5 0
-13 -4 -16 -10z"/>
<path d="M2989 7923 c-13 -16 -12 -17 4 -4 9 7 17 15 17 17 0 8 -8 3 -21 -13z"/>
<path d="M5046 7923 c-6 -14 -5 -15 5 -6 7 7 10 15 7 18 -3 3 -9 -2 -12 -12z"/>
<path d="M2949 7893 c-13 -16 -12 -17 4 -4 9 7 17 15 17 17 0 8 -8 3 -21 -13z"/>
<path d="M2909 7863 c-13 -16 -12 -17 4 -4 9 7 17 15 17 17 0 8 -8 3 -21 -13z"/>
<path d="M5055 7869 c-4 -6 -5 -12 -2 -15 2 -3 7 2 10 11 7 17 1 20 -8 4z"/>
<path d="M2859 7823 l-24 -28 28 24 c25 23 32 31 24 31 -2 0 -14 -12 -28 -27z"/>
<path d="M4890 7809 c0 -5 5 -7 10 -4 6 3 10 8 10 11 0 2 -4 4 -10 4 -5 0 -10
-5 -10 -11z"/>
<path d="M5075 7810 c3 -5 8 -10 11 -10 2 0 4 5 4 10 0 6 -5 10 -11 10 -5 0
-7 -4 -4 -10z"/>
<path d="M5067 7778 c3 -13 5 -36 5 -53 l-1 -30 14 25 c11 21 11 29 -1 52 -18
34 -25 36 -17 6z"/>
<path d="M2794 7768 l-19 -23 23 19 c12 11 22 21 22 23 0 8 -8 2 -26 -19z"/>
<path d="M5098 7783 c7 -3 16 -2 19 1 4 3 -2 6 -13 5 -11 0 -14 -3 -6 -6z"/>
<path d="M5110 7761 c0 -6 4 -13 10 -16 6 -3 7 1 4 9 -7 18 -14 21 -14 7z"/>
<path d="M5015 7730 c3 -5 8 -10 11 -10 2 0 4 5 4 10 0 6 -5 10 -11 10 -5 0
-7 -4 -4 -10z"/>
<path d="M2705 7688 l-40 -43 43 40 c39 36 47 45 39 45 -2 0 -21 -19 -42 -42z"/>
<path d="M5035 7690 c-3 -5 -1 -10 4 -10 6 0 11 5 11 10 0 6 -2 10 -4 10 -3 0
-8 -4 -11 -10z"/>
<path d="M5146 7692 c-3 -6 3 -17 14 -25 11 -7 18 -16 16 -18 -2 -2 4 -12 14
-22 15 -16 19 -16 30 -2 10 13 9 15 -8 15 -15 0 -20 5 -16 15 4 9 0 15 -9 15
-9 0 -20 7 -25 16 -6 11 -12 13 -16 6z"/>
<path d="M5065 7670 c3 -5 10 -10 16 -10 5 0 9 5 9 10 0 6 -7 10 -16 10 -8 0
-12 -4 -9 -10z"/>
<path d="M5120 7655 c0 -8 4 -15 10 -15 5 0 7 7 4 15 -4 8 -8 15 -10 15 -2 0
-4 -7 -4 -15z"/>
<path d="M5065 7640 c3 -5 8 -10 11 -10 2 0 4 5 4 10 0 6 -5 10 -11 10 -5 0
-7 -4 -4 -10z"/>
<path d="M5025 7630 c3 -5 8 -10 11 -10 2 0 4 5 4 10 0 6 -5 10 -11 10 -5 0
-7 -4 -4 -10z"/>
<path d="M5114 7601 c14 -9 26 -19 26 -23 0 -12 -24 -9 -40 5 -8 6 -5 1 7 -13
12 -14 23 -34 26 -45 2 -11 3 -8 2 8 -1 15 3 27 8 27 5 0 7 9 4 20 -5 21 7 28
18 10 7 -12 25 -4 25 12 0 5 -7 8 -15 5 -8 -4 -17 -2 -20 3 -3 5 -19 8 -36 8
l-31 -1 26 -16z"/>
<path d="M5045 7590 c-3 -5 -1 -10 4 -10 6 0 11 5 11 10 0 6 -2 10 -4 10 -3 0
-8 -4 -11 -10z"/>
<path d="M5065 7570 c-3 -5 -1 -10 4 -10 6 0 11 5 11 10 0 6 -2 10 -4 10 -3 0
-8 -4 -11 -10z"/>
<path d="M5160 7559 c0 -5 5 -7 10 -4 6 3 10 8 10 11 0 2 -4 4 -10 4 -5 0 -10
-5 -10 -11z"/>
<path d="M5065 7529 c-4 -6 -5 -12 -2 -15 2 -3 7 2 10 11 7 17 1 20 -8 4z"/>
<path d="M5202 7531 c-11 -7 -11 -9 2 -14 10 -4 16 -1 16 8 0 17 -1 17 -18 6z"/>
<path d="M5021 7504 c0 -11 3 -14 6 -6 3 7 2 16 -1 19 -3 4 -6 -2 -5 -13z"/>
<path d="M5162 7508 c-7 -7 -12 -23 -12 -37 0 -28 8 -25 13 5 1 10 6 25 10 32
10 15 5 16 -11 0z"/>
<path d="M5080 7501 c0 -10 19 -25 25 -20 1 2 -3 10 -11 17 -8 7 -14 8 -14 3z"/>
<path d="M5246 7501 c-17 -6 -17 -8 -4 -14 10 -3 19 0 22 9 3 8 4 14 3 13 -1
0 -11 -4 -21 -8z"/>
<path d="M5184 7465 c-10 -19 -22 -35 -27 -35 -4 0 -6 -4 -3 -9 4 -5 0 -11 -6
-14 -7 -2 -10 -7 -7 -11 4 -4 14 0 23 9 9 9 21 13 27 9 8 -4 8 -1 1 12 -11 23
-5 45 11 38 7 -2 13 4 14 16 3 30 -12 24 -33 -15z"/>
<path d="M2484 7468 l-19 -23 23 19 c21 18 27 26 19 26 -2 0 -12 -10 -23 -22z"/>
<path d="M5040 7435 c0 -8 4 -15 10 -15 5 0 7 7 4 15 -4 8 -8 15 -10 15 -2 0
-4 -7 -4 -15z"/>
<path d="M5125 7429 c-4 -6 -5 -12 -2 -15 2 -3 7 2 10 11 7 17 1 20 -8 4z"/>
<path d="M2419 7393 c-13 -16 -12 -17 4 -4 9 7 17 15 17 17 0 8 -8 3 -21 -13z"/>
<path d="M5037 7379 c4 -13 8 -18 11 -10 2 7 -1 18 -6 23 -8 8 -9 4 -5 -13z"/>
<path d="M5185 7390 c3 -5 8 -10 11 -10 2 0 4 5 4 10 0 6 -5 10 -11 10 -5 0
-7 -4 -4 -10z"/>
<path d="M5137 7374 c-3 -5 1 -15 9 -22 16 -14 18 -5 5 17 -5 7 -11 9 -14 5z"/>
<path d="M5180 7349 c0 -5 5 -7 10 -4 6 3 10 8 10 11 0 2 -4 4 -10 4 -5 0 -10
-5 -10 -11z"/>
<path d="M5096 7292 c-3 -6 -1 -14 5 -17 14 -9 20 -2 10 14 -6 8 -11 9 -15 3z"/>
<path d="M5222 7259 c3 -8 -2 -19 -11 -26 -14 -10 -13 -11 7 -6 23 6 30 27 11
39 -7 4 -10 1 -7 -7z"/>
<path d="M5110 7250 c-9 -6 -10 -10 -3 -10 6 0 15 5 18 10 8 12 4 12 -15 0z"/>
<path d="M5138 7213 c6 -2 18 -2 25 0 6 3 1 5 -13 5 -14 0 -19 -2 -12 -5z"/>
<path d="M5110 7206 c0 -2 8 -10 18 -17 15 -13 16 -12 3 4 -13 16 -21 21 -21
13z"/>
<path d="M5027 7170 c10 -11 19 -20 21 -20 1 0 -2 9 -8 20 -6 11 -15 20 -20
20 -6 0 -2 -9 7 -20z"/>
<path d="M5140 7165 c-17 -18 -20 -28 -12 -37 6 -7 10 -17 10 -21 0 -5 3 -11
6 -14 10 -10 7 17 -4 38 -7 12 -7 19 -1 19 6 0 15 9 21 20 14 27 8 25 -20 -5z"/>
<path d="M5086 7153 c-6 -14 -5 -15 5 -6 7 7 10 15 7 18 -3 3 -9 -2 -12 -12z"/>
<path d="M5166 7104 c-4 -9 -5 -18 -3 -20 1 -2 9 1 17 6 11 7 12 12 4 20 -8 8
-13 7 -18 -6z"/>
<path d="M5100 7080 c-10 -6 -11 -10 -2 -10 6 0 12 -6 12 -14 0 -7 8 -20 18
-27 15 -12 16 -12 5 1 -6 8 -13 25 -15 37 -2 17 -6 20 -18 13z"/>
<path d="M5206 7052 c-3 -6 0 -13 6 -15 10 -4 9 -8 -2 -16 -9 -6 -16 -7 -18
-1 -6 17 -19 11 -37 -17 l-18 -28 22 19 c25 22 40 16 16 -7 -23 -24 -18 -33 6
-11 16 14 21 15 17 4 -8 -26 14 -39 39 -23 13 9 23 19 23 24 0 5 -11 2 -24 -6
-22 -15 -24 -14 -29 6 -4 14 0 27 10 34 12 9 13 16 6 30 -6 11 -13 13 -17 7z"/>
<path d="M5150 7040 c0 -5 5 -10 10 -10 6 0 10 5 10 10 0 6 -4 10 -10 10 -5 0
-10 -4 -10 -10z"/>
<path d="M5091 6964 c0 -11 3 -14 6 -6 3 7 2 16 -1 19 -3 4 -6 -2 -5 -13z"/>
<path d="M5130 6941 c0 -6 4 -13 10 -16 6 -3 7 1 4 9 -7 18 -14 21 -14 7z"/>
<path d="M5175 6920 c3 -5 8 -10 11 -10 2 0 4 5 4 10 0 6 -5 10 -11 10 -5 0
-7 -4 -4 -10z"/>
<path d="M5200 6914 c0 -8 5 -12 10 -9 6 3 10 10 10 16 0 5 -4 9 -10 9 -5 0
-10 -7 -10 -16z"/>
<path d="M5130 6830 c6 -11 13 -20 16 -20 2 0 0 9 -6 20 -6 11 -13 20 -16 20
-2 0 0 -9 6 -20z"/>
<path d="M5066 6801 c-3 -4 1 -17 10 -27 14 -18 15 -18 5 2 -6 12 -7 24 -4 28
3 3 4 6 0 6 -3 0 -8 -4 -11 -9z"/>
<path d="M5216 6755 c-3 -8 -1 -17 3 -20 5 -3 11 2 15 10 3 8 1 17 -3 20 -5 3
-11 -2 -15 -10z"/>
<path d="M5170 6754 c0 -4 7 -12 17 -19 10 -8 13 -17 8 -26 -5 -7 -10 -22 -10
-33 -2 -18 -1 -18 12 -1 17 25 17 50 -3 69 -16 17 -24 20 -24 10z"/>
<path d="M5330 6734 c0 -8 5 -12 10 -9 6 3 10 10 10 16 0 5 -4 9 -10 9 -5 0
-10 -7 -10 -16z"/>
<path d="M5143 6724 c0 -8 6 -14 14 -14 7 0 13 4 13 9 0 5 -6 11 -13 14 -8 3
-14 -1 -14 -9z"/>
<path d="M5230 6700 c0 -5 10 -10 23 -10 18 0 19 2 7 10 -19 13 -30 13 -30 0z"/>
<path d="M5110 6690 c0 -5 5 -10 10 -10 6 0 10 5 10 10 0 6 -4 10 -10 10 -5 0
-10 -4 -10 -10z"/>
<path d="M5152 6691 c-11 -7 -11 -9 2 -14 10 -4 16 -1 16 8 0 17 -1 17 -18 6z"/>
<path d="M5280 6680 c0 -5 5 -10 10 -10 6 0 10 5 10 10 0 6 -4 10 -10 10 -5 0
-10 -4 -10 -10z"/>
<path d="M5120 6629 c0 -5 5 -7 10 -4 6 3 10 8 10 11 0 2 -4 4 -10 4 -5 0 -10
-5 -10 -11z"/>
<path d="M5128 6596 c-9 -17 -8 -19 3 -8 20 18 40 15 32 -5 -6 -17 -6 -17 10
-1 22 22 22 25 -8 31 -19 3 -29 -1 -37 -17z"/>
<path d="M5066 6587 c3 -10 9 -15 12 -12 3 3 0 11 -7 18 -10 9 -11 8 -5 -6z"/>
<path d="M5100 6566 c0 -3 9 -10 20 -16 11 -6 20 -8 20 -6 0 3 -9 10 -20 16
-11 6 -20 8 -20 6z"/>
<path d="M5040 6550 c20 -13 33 -13 25 0 -3 6 -14 10 -23 10 -15 0 -15 -2 -2
-10z"/>
<path d="M5181 6543 c0 -4 4 -17 9 -28 8 -19 9 -19 9 2 1 12 -3 25 -9 28 -5 3
-10 3 -9 -2z"/>
<path d="M5085 6512 c-8 -23 0 -24 18 -4 14 15 15 19 2 19 -8 0 -17 -7 -20
-15z"/>
<path d="M5150 6511 c0 -6 5 -13 10 -16 6 -3 10 1 10 9 0 9 -4 16 -10 16 -5 0
-10 -4 -10 -9z"/>
<path d="M5116 6502 c-3 -6 -1 -14 5 -17 14 -9 20 -2 10 14 -6 8 -11 9 -15 3z"/>
<path d="M5120 6450 c13 -8 12 -10 -4 -10 -14 0 -16 -3 -7 -13 6 -8 7 -18 3
-22 -4 -5 -1 -5 6 -1 7 4 9 12 6 18 -5 7 -1 9 9 5 10 -3 17 -3 17 1 0 12 -22
32 -34 32 -6 0 -4 -5 4 -10z"/>
<path d="M5176 6443 c-10 -10 -7 -25 4 -18 9 6 14 -8 11 -27 0 -5 5 -8 12 -8
8 0 14 6 13 13 0 15 -32 47 -40 40z"/>
<path d="M5230 6390 c0 -5 5 -10 10 -10 6 0 10 5 10 10 0 6 -4 10 -10 10 -5 0
-10 -4 -10 -10z"/>
<path d="M5145 6375 c-11 -8 -15 -14 -10 -13 6 1 20 -3 31 -10 21 -11 34 -7
34 11 0 5 -6 7 -14 4 -8 -3 -16 1 -18 9 -3 13 -5 13 -23 -1z"/>
<path d="M5098 6285 c-16 -15 -28 -20 -30 -13 -3 7 -7 6 -11 -4 -4 -13 -1 -16
15 -13 11 3 21 6 22 7 1 2 10 13 20 26 25 29 17 28 -16 -3z"/>
<path d="M5177 6288 c-5 -21 -5 -21 7 -6 7 10 17 14 21 10 5 -4 5 -1 1 6 -11
19 -23 14 -29 -10z"/>
<path d="M4990 6289 c0 -5 5 -7 10 -4 6 3 10 8 10 11 0 2 -4 4 -10 4 -5 0 -10
-5 -10 -11z"/>
<path d="M5175 6262 c-12 -2 -26 -12 -33 -22 -15 -24 -9 -26 13 -4 10 10 24
14 40 10 23 -6 24 -7 8 -26 -10 -11 -27 -20 -38 -20 -16 0 -17 2 -5 10 8 5 11
10 5 10 -5 0 -21 -10 -35 -21 -24 -20 -24 -20 -2 -14 18 5 22 2 22 -17 0 -16
-3 -19 -9 -10 -7 11 -9 10 -14 -3 -4 -9 -3 -13 2 -10 5 3 12 1 15 -4 13 -20
-34 -18 -49 3 -14 18 -15 19 -10 2 3 -11 1 -22 -5 -26 -6 -4 6 -7 26 -8 21 -1
42 -7 48 -13 8 -9 4 -10 -15 -7 -23 4 -28 0 -37 -28 -8 -26 -7 -34 5 -39 11
-4 14 0 10 14 -2 10 0 25 5 32 8 11 9 10 4 -3 -7 -22 12 -24 20 -3 4 8 10 12
15 9 5 -3 9 2 9 10 0 23 -4 31 -14 28 -5 -2 -5 5 -1 15 4 10 8 26 9 35 1 10 6
21 11 25 4 5 5 2 1 -4 -8 -14 3 -17 19 -5 6 4 16 18 23 31 12 20 11 25 -5 40
-10 9 -27 15 -38 13z"/>
<path d="M4980 6249 c0 -5 5 -7 10 -4 6 3 10 8 10 11 0 2 -4 4 -10 4 -5 0 -10
-5 -10 -11z"/>
<path d="M5080 6221 c0 -6 4 -13 10 -16 6 -3 7 1 4 9 -7 18 -14 21 -14 7z"/>
<path d="M4985 6160 c-3 -5 -1 -10 4 -10 6 0 11 5 11 10 0 6 -2 10 -4 10 -3 0
-8 -4 -11 -10z"/>
<path d="M5082 6095 c4 -4 3 -14 -3 -22 -7 -8 -8 -13 -1 -13 15 0 23 28 9 36
-7 4 -9 4 -5 -1z"/>
<path d="M5020 6076 c0 -4 7 -14 15 -22 8 -9 15 -11 15 -6 0 5 -7 15 -15 22
-8 7 -15 9 -15 6z"/>
<path d="M5090 6010 c0 -5 5 -10 11 -10 5 0 7 5 4 10 -3 6 -8 10 -11 10 -2 0
-4 -4 -4 -10z"/>
<path d="M5002 5988 c-7 -7 -12 -17 -12 -22 0 -6 5 -3 11 7 5 9 15 17 20 17 6
0 7 -4 4 -10 -3 -5 -1 -10 4 -10 6 0 11 7 11 15 0 18 -21 20 -38 3z"/>
<path d="M5010 5906 c0 -2 7 -6 15 -10 8 -3 15 -1 15 4 0 6 -7 10 -15 10 -8 0
-15 -2 -15 -4z"/>
<path d="M5150 5900 c0 -5 7 -10 16 -10 8 0 12 5 9 10 -3 6 -10 10 -16 10 -5
0 -9 -4 -9 -10z"/>
<path d="M5083 5876 c3 -8 2 -17 -4 -20 -5 -2 -4 -3 3 -2 17 3 23 36 8 36 -7
0 -10 -6 -7 -14z"/>
<path d="M5140 5860 c0 -5 5 -10 10 -10 6 0 10 5 10 10 0 6 -4 10 -10 10 -5 0
-10 -4 -10 -10z"/>
<path d="M4990 5856 c0 -2 8 -10 18 -17 15 -13 16 -12 3 4 -13 16 -21 21 -21
13z"/>
<path d="M5035 5850 c-3 -5 -1 -10 4 -10 6 0 11 5 11 10 0 6 -2 10 -4 10 -3 0
-8 -4 -11 -10z"/>
<path d="M5116 5828 c3 -4 9 -8 15 -8 5 0 9 4 9 8 0 5 -7 9 -15 9 -8 0 -12 -4
-9 -9z"/>
<path d="M4910 5820 c0 -5 5 -10 11 -10 5 0 7 5 4 10 -3 6 -8 10 -11 10 -2 0
-4 -4 -4 -10z"/>
<path d="M5065 5810 c8 -9 15 -25 15 -36 0 -15 2 -16 10 -4 5 9 5 19 -1 27 -6
7 -8 16 -6 20 3 5 -3 9 -13 9 -17 0 -18 -2 -5 -16z"/>
<path d="M5006 5805 c-3 -8 -1 -15 4 -15 5 0 6 -8 3 -17 -6 -15 -5 -16 9 -3
10 9 12 17 6 21 -6 4 -7 12 -4 18 4 6 3 11 -2 11 -6 0 -12 -7 -16 -15z"/>
<path d="M5100 5812 c0 -5 6 -15 14 -21 12 -10 14 -9 12 5 -3 19 -26 33 -26
16z"/>
<path d="M4973 5779 c-13 -13 6 -59 25 -59 7 0 15 -7 18 -15 4 -8 11 -15 17
-15 5 0 3 8 -6 18 -10 10 -14 22 -10 27 5 4 3 5 -3 2 -6 -4 -19 2 -28 12 -17
18 -17 19 1 23 11 2 14 6 7 10 -6 4 -15 3 -21 -3z"/>
<path d="M4900 5776 c0 -3 9 -10 20 -16 11 -6 20 -8 20 -6 0 3 -9 10 -20 16
-11 6 -20 8 -20 6z"/>
<path d="M5075 5740 c3 -5 8 -10 11 -10 2 0 4 5 4 10 0 6 -5 10 -11 10 -5 0
-7 -4 -4 -10z"/>
<path d="M5110 5699 c0 -5 5 -7 10 -4 6 3 10 8 10 11 0 2 -4 4 -10 4 -5 0 -10
-5 -10 -11z"/>
<path d="M4900 5689 c0 -5 4 -9 10 -9 5 0 6 -8 3 -17 -5 -14 -3 -13 14 3 11
10 19 20 18 22 -6 8 -45 9 -45 1z"/>
<path d="M4921 5637 c-21 -23 -21 -25 -4 -43 10 -11 15 -15 11 -9 -4 7 -5 15
-1 18 3 4 0 7 -7 7 -7 0 -1 11 14 25 15 14 23 25 18 25 -5 0 -18 -11 -31 -23z"/>
<path d="M5010 5650 c-8 -5 -12 -12 -9 -15 8 -8 39 5 39 16 0 11 -11 11 -30
-1z"/>
<path d="M5054 5633 c2 -30 36 -40 36 -12 0 6 -4 7 -10 4 -5 -3 -10 1 -10 9 0
9 -4 16 -9 16 -5 0 -8 -8 -7 -17z"/>
<path d="M4956 5631 c-3 -5 1 -11 9 -15 8 -3 15 -1 15 4 0 13 -18 22 -24 11z"/>
<path d="M4990 5611 c0 -6 5 -13 10 -16 6 -3 10 1 10 9 0 9 -4 16 -10 16 -5 0
-10 -4 -10 -9z"/>
<path d="M4946 5597 c3 -10 9 -15 12 -12 3 3 0 11 -7 18 -10 9 -11 8 -5 -6z"/>
<path d="M4875 5510 c3 -5 8 -10 11 -10 2 0 4 5 4 10 0 6 -5 10 -11 10 -5 0
-7 -4 -4 -10z"/>
<path d="M4920 5475 c-9 -11 -10 -15 -1 -15 8 0 10 -8 6 -19 -3 -12 0 -21 10
-25 10 -4 14 -2 9 5 -4 8 1 9 15 4 11 -3 21 -2 21 3 0 5 9 12 20 15 25 6 26
23 3 31 -10 4 -14 4 -11 0 4 -3 0 -13 -9 -22 -18 -19 -50 -4 -45 22 4 20 -2
20 -18 1z"/>
<path d="M4995 5421 c-3 -5 -1 -12 5 -16 5 -3 10 -2 10 4 0 6 7 8 15 5 8 -4
15 -1 15 5 0 13 -36 15 -45 2z"/>
<path d="M4790 5406 c0 -2 7 -6 15 -10 8 -3 15 -1 15 4 0 6 -7 10 -15 10 -8 0
-15 -2 -15 -4z"/>
<path d="M4778 5348 c5 -5 16 -8 23 -6 8 3 3 7 -10 11 -17 4 -21 3 -13 -5z"/>
<path d="M4864 5339 c-3 -6 3 -21 15 -32 11 -12 21 -16 21 -10 0 6 -7 14 -16
17 -9 4 -14 13 -10 21 6 17 0 20 -10 4z"/>
<path d="M4666 5327 c3 -10 9 -15 12 -12 3 3 0 11 -7 18 -10 9 -11 8 -5 -6z"/>
<path d="M4840 5332 c0 -4 -14 -13 -32 -20 -17 -6 -29 -15 -25 -18 4 -4 13 -1
22 6 8 7 15 8 15 3 0 -5 6 -10 13 -10 6 0 21 -4 32 -7 15 -5 14 -4 -3 5 -15 8
-21 18 -16 31 3 10 3 18 0 18 -3 0 -6 -4 -6 -8z"/>
<path d="M4890 5330 c0 -5 5 -10 10 -10 6 0 10 5 10 10 0 6 -4 10 -10 10 -5 0
-10 -4 -10 -10z"/>
<path d="M4815 5270 c3 -5 8 -10 11 -10 2 0 4 5 4 10 0 6 -5 10 -11 10 -5 0
-7 -4 -4 -10z"/>
<path d="M4716 5222 c-3 -5 1 -9 9 -9 8 0 15 4 15 9 0 4 -4 8 -9 8 -6 0 -12
-4 -15 -8z"/>
<path d="M4660 5174 c0 -8 5 -12 10 -9 6 4 8 11 5 16 -9 14 -15 11 -15 -7z"/>
<path d="M4782 5164 c-16 -8 -20 -14 -12 -19 7 -4 19 0 28 9 21 20 13 26 -16
10z"/>
<path d="M4690 5159 c0 -5 5 -7 10 -4 6 3 10 8 10 11 0 2 -4 4 -10 4 -5 0 -10
-5 -10 -11z"/>
<path d="M4724 5146 c-9 -9 -8 -17 1 -30 8 -11 15 -13 20 -7 3 6 1 11 -5 11
-7 0 -9 8 -5 20 7 23 5 25 -11 6z"/>
<path d="M4640 5101 c0 -6 4 -13 10 -16 6 -3 7 1 4 9 -7 18 -14 21 -14 7z"/>
<path d="M4627 5073 c-4 -3 -7 -11 -7 -17 0 -6 5 -5 12 2 6 6 9 14 7 17 -3 3
-9 2 -12 -2z"/>
<path d="M4697 5073 c-13 -12 -7 -23 11 -22 10 0 12 3 4 6 -6 2 -10 9 -6 14 6
10 0 12 -9 2z"/>
<path d="M4642 5013 c6 -7 14 -10 19 -7 15 9 10 20 -10 20 -15 0 -17 -3 -9
-13z"/>
<path d="M4495 4970 c-3 -6 1 -7 9 -4 18 7 21 14 7 14 -6 0 -13 -4 -16 -10z"/>
<path d="M4580 4925 c0 -8 2 -15 4 -15 2 0 6 7 10 15 3 8 1 15 -4 15 -6 0 -10
-7 -10 -15z"/>
<path d="M4510 4908 c0 -4 6 -8 14 -8 8 0 17 4 20 8 2 4 -4 8 -15 8 -10 0 -19
-4 -19 -8z"/>
<path d="M4571 4884 c0 -11 3 -14 6 -6 3 7 2 16 -1 19 -3 4 -6 -2 -5 -13z"/>
<path d="M4445 4821 c-3 -5 0 -13 6 -16 6 -4 14 -17 19 -29 6 -15 9 -16 9 -5
1 9 -6 22 -14 29 -8 7 -12 16 -9 21 3 5 3 9 0 9 -3 0 -7 -4 -11 -9z"/>
<path d="M4544 4821 c4 -5 1 -12 -4 -14 -6 -3 -5 -4 2 -3 15 3 23 26 8 26 -6
0 -9 -4 -6 -9z"/>
<path d="M4578 4823 c7 -3 16 -2 19 1 4 3 -2 6 -13 5 -11 0 -14 -3 -6 -6z"/>
<path d="M4626 4811 c-4 -7 -5 -15 -2 -18 9 -9 19 4 14 18 -4 11 -6 11 -12 0z"/>
<path d="M4574 4787 c3 -14 1 -28 -4 -30 -6 -3 -5 -4 2 -3 16 3 19 44 5 53 -6
4 -8 -3 -3 -20z"/>
<path d="M4426 4785 c-9 -26 -7 -32 5 -12 6 10 9 21 6 23 -2 3 -7 -2 -11 -11z"/>
<path d="M4367 4773 c-4 -3 -7 -11 -7 -17 0 -6 5 -5 12 2 6 6 9 14 7 17 -3 3
-9 2 -12 -2z"/>
<path d="M4520 4770 c-8 -5 -12 -12 -9 -15 4 -3 12 1 19 10 14 17 11 19 -10 5z"/>
<path d="M4608 4768 c7 -7 12 -23 12 -37 1 -23 2 -24 11 -9 11 20 -4 58 -23
58 -9 0 -9 -3 0 -12z"/>
<path d="M4445 4760 c-3 -5 -1 -10 4 -10 6 0 11 5 11 10 0 6 -2 10 -4 10 -3 0
-8 -4 -11 -10z"/>
<path d="M4540 4740 c0 -13 18 -22 24 -11 3 5 -1 11 -9 15 -8 3 -15 1 -15 -4z"/>
<path d="M4506 4722 c-2 -4 0 -14 6 -22 8 -12 9 -12 5 2 -3 9 -1 19 6 22 9 3
9 5 0 5 -6 1 -14 -3 -17 -7z"/>
<path d="M4540 4710 c-1 -3 -4 -15 -5 -28 -1 -15 1 -20 7 -14 6 6 8 18 5 28
-3 11 -6 17 -7 14z"/>
<path d="M4570 4690 c0 -5 5 -10 11 -10 5 0 7 5 4 10 -3 6 -8 10 -11 10 -2 0
-4 -4 -4 -10z"/>
<path d="M4480 4663 c-14 -7 -19 -13 -11 -13 11 0 11 -3 1 -15 -11 -13 -10
-14 4 -9 9 3 16 12 16 20 0 8 5 14 11 14 5 0 8 -4 4 -9 -3 -5 -1 -12 5 -16 6
-4 8 -11 5 -16 -4 -5 -1 -9 4 -9 6 0 11 7 11 15 0 8 -5 15 -11 15 -5 0 -8 4
-5 8 11 18 -10 28 -34 15z"/>
<path d="M4396 4607 c3 -10 9 -15 12 -12 3 3 0 11 -7 18 -10 9 -11 8 -5 -6z"/>
<path d="M4455 4600 c-3 -5 -2 -10 3 -10 5 0 12 -9 15 -20 3 -11 9 -20 15 -20
14 0 67 49 60 56 -4 3 -18 -6 -33 -21 -27 -30 -35 -29 -38 4 -1 22 -12 28 -22
11z"/>
<path d="M4421 4578 c-1 -10 -4 -18 -8 -18 -5 0 -9 -12 -10 -27 -1 -16 2 -21
7 -13 4 7 13 9 21 5 11 -6 12 -5 2 6 -18 18 -16 32 2 25 9 -3 15 0 15 10 0 8
-4 13 -9 10 -5 -4 -12 0 -14 6 -3 8 -6 6 -6 -4z"/>
<path d="M4365 4560 c-4 -6 -11 -7 -17 -4 -7 4 -8 2 -4 -5 6 -9 11 -9 22 0 14
11 18 19 10 19 -3 0 -8 -5 -11 -10z"/>
<path d="M4236 4535 c4 -8 11 -15 16 -15 6 0 5 6 -2 15 -7 8 -14 15 -16 15 -2
0 -1 -7 2 -15z"/>
<path d="M4366 4535 c-16 -12 -17 -15 -4 -15 9 0 18 7 22 15 7 18 6 18 -18 0z"/>
<path d="M4520 4531 c0 -11 -5 -23 -11 -27 -7 -4 -9 0 -5 13 4 14 2 20 -9 20
-11 0 -14 -6 -9 -16 19 -46 17 -51 -10 -38 -29 13 -36 33 -8 22 14 -5 15 -4 4
6 -10 11 -15 10 -29 -4 -12 -11 -13 -17 -5 -17 7 0 10 -5 7 -11 -4 -6 -1 -9 6
-8 8 1 22 -1 33 -6 22 -9 68 5 74 23 2 6 -4 12 -13 12 -13 0 -16 6 -11 25 4
14 2 25 -4 25 -5 0 -10 -9 -10 -19z m6 -58 c-10 -10 -19 5 -10 18 6 11 8 11
12 0 2 -7 1 -15 -2 -18z"/>
<path d="M4383 4488 c2 -27 21 -28 31 -2 4 9 2 12 -5 8 -6 -4 -15 -1 -19 6 -5
8 -8 4 -7 -12z"/>
<path d="M4258 4473 c6 -2 18 -2 25 0 6 3 1 5 -13 5 -14 0 -19 -2 -12 -5z"/>
<path d="M4345 4453 c-3 -15 -14 -33 -23 -40 -15 -11 -14 -12 7 -5 17 6 25 17
27 40 5 39 -1 42 -11 5z"/>
<path d="M4427 4459 c7 -7 15 -10 18 -7 3 3 -2 9 -12 12 -14 6 -15 5 -6 -5z"/>
<path d="M4441 4442 c-29 -27 -22 -40 11 -18 12 8 27 15 31 15 5 -1 11 2 15 5
3 3 -2 6 -10 6 -9 0 -18 3 -20 8 -1 4 -14 -3 -27 -16z"/>
<path d="M4235 4450 c3 -5 8 -10 11 -10 2 0 4 5 4 10 0 6 -5 10 -11 10 -5 0
-7 -4 -4 -10z"/>
<path d="M4401 4444 c0 -11 3 -14 6 -6 3 7 2 16 -1 19 -3 4 -6 -2 -5 -13z"/>
<path d="M1661 4424 c0 -11 3 -14 6 -6 3 7 2 16 -1 19 -3 4 -6 -2 -5 -13z"/>
<path d="M4385 4410 c4 -6 11 -8 16 -5 14 9 11 15 -7 15 -8 0 -12 -5 -9 -10z"/>
<path d="M4164 4381 c4 -6 2 -18 -4 -26 -7 -8 -10 -20 -7 -27 4 -8 6 -7 6 5 1
9 6 17 11 17 14 0 13 27 -2 36 -7 4 -8 3 -4 -5z"/>
<path d="M4244 4359 c-3 -6 -2 -15 3 -20 5 -5 9 -1 9 11 0 23 -2 24 -12 9z"/>
<path d="M4300 4351 c0 -10 19 -25 25 -20 1 2 -3 10 -11 17 -8 7 -14 8 -14 3z"/>
<path d="M4290 4323 c8 -3 7 -9 -1 -19 -10 -12 -9 -13 5 -8 18 7 17 26 -2 30
-7 1 -8 0 -2 -3z"/>
<path d="M4160 4293 c11 -16 17 -19 27 -11 7 6 13 16 13 22 0 6 -4 5 -9 -3 -8
-13 -12 -13 -27 0 -16 13 -16 12 -4 -8z"/>
<path d="M4255 4300 c-3 -5 -1 -10 4 -10 6 0 11 5 11 10 0 6 -2 10 -4 10 -3 0
-8 -4 -11 -10z"/>
<path d="M4316 4265 c4 -8 11 -15 16 -15 6 0 5 6 -2 15 -7 8 -14 15 -16 15 -2
0 -1 -7 2 -15z"/>
<path d="M4193 4255 c-10 -11 -8 -17 10 -32 13 -10 22 -24 19 -31 -2 -7 2 -10
12 -6 9 3 13 11 9 17 -3 5 1 16 11 22 14 11 15 14 1 25 -13 11 -14 10 -10 -3
8 -18 -8 -29 -29 -21 -11 4 -14 13 -11 25 7 22 4 23 -12 4z"/>
<path d="M4117 4253 c-12 -12 -7 -22 8 -17 8 4 15 10 15 15 0 11 -14 12 -23 2z"/>
<path d="M4120 4210 c0 -5 5 -10 10 -10 6 0 10 5 10 10 0 6 -4 10 -10 10 -5 0
-10 -4 -10 -10z"/>
<path d="M4155 4200 c-3 -5 -1 -10 4 -10 6 0 11 5 11 10 0 6 -2 10 -4 10 -3 0
-8 -4 -11 -10z"/>
<path d="M4310 4191 c0 -12 29 -23 41 -15 5 3 7 10 4 15 -8 12 -45 12 -45 0z"/>
<path d="M4145 4171 c3 -5 -3 -12 -12 -14 -11 -3 -8 -5 10 -6 29 -1 37 13 11
23 -8 3 -12 2 -9 -3z"/>
<path d="M4196 4155 c-11 -8 -15 -15 -9 -15 19 0 43 12 43 21 0 13 -12 11 -34
-6z"/>
<path d="M4150 4130 c0 -5 5 -10 10 -10 6 0 10 -7 10 -15 0 -8 7 -15 15 -15
11 0 10 6 -7 25 -24 28 -28 30 -28 15z"/>
<path d="M4117 4112 c-10 -10 -14 -22 -10 -25 3 -4 -2 -7 -13 -7 -15 0 -16 -2
-4 -9 10 -7 19 -2 33 21 21 35 18 46 -6 20z"/>
<path d="M4080 4110 c-8 -5 -12 -12 -9 -15 4 -3 12 1 19 10 14 17 11 19 -10 5z"/>
<path d="M3985 4070 c-3 -5 1 -10 10 -10 9 0 13 5 10 10 -3 6 -8 10 -10 10 -2
0 -7 -4 -10 -10z"/>
<path d="M4136 4072 c-2 -4 4 -9 15 -9 10 -1 19 2 19 8 0 11 -27 12 -34 1z"/>
<path d="M3865 4040 c-3 -5 -1 -10 4 -10 6 0 11 5 11 10 0 6 -2 10 -4 10 -3 0
-8 -4 -11 -10z"/>
<path d="M3935 4040 c-3 -5 -1 -10 4 -10 6 0 11 5 11 10 0 6 -2 10 -4 10 -3 0
-8 -4 -11 -10z"/>
<path d="M4044 4026 c-3 -9 -13 -16 -21 -16 -8 0 -11 -5 -7 -11 4 -7 13 -4 27
10 12 11 18 23 14 27 -4 4 -9 -1 -13 -10z"/>
<path d="M3970 4020 c0 -5 5 -10 10 -10 6 0 10 5 10 10 0 6 -4 10 -10 10 -5 0
-10 -4 -10 -10z"/>
<path d="M1771 4005 c1 -19 18 -51 18 -35 0 8 -4 22 -9 30 -5 8 -9 11 -9 5z"/>
<path d="M3875 3990 c-8 -13 -1 -24 14 -19 6 3 7 10 2 18 -6 10 -10 10 -16 1z"/>
<path d="M4056 3985 c5 -12 2 -14 -12 -8 -17 6 -17 5 -5 -10 19 -23 26 -21 29
8 1 14 -3 25 -8 25 -5 0 -7 -7 -4 -15z"/>
<path d="M3916 3964 c-5 -14 -4 -15 9 -4 17 14 19 20 6 20 -5 0 -12 -7 -15
-16z"/>
<path d="M3825 3960 c3 -5 8 -10 11 -10 2 0 4 5 4 10 0 6 -5 10 -11 10 -5 0
-7 -4 -4 -10z"/>
<path d="M4150 3956 c0 -9 5 -16 10 -16 6 0 10 4 10 9 0 6 -4 13 -10 16 -5 3
-10 -1 -10 -9z"/>
<path d="M3995 3950 c4 -6 11 -8 16 -5 14 9 11 15 -7 15 -8 0 -12 -5 -9 -10z"/>
<path d="M1790 3945 c0 -5 5 -17 10 -25 5 -8 10 -10 10 -5 0 6 -5 17 -10 25
-5 8 -10 11 -10 5z"/>
<path d="M3925 3930 c-19 -8 -19 -9 3 -9 12 -1 22 4 22 9 0 6 -1 10 -2 9 -2 0
-12 -4 -23 -9z"/>
<path d="M3880 3902 c0 -32 23 -61 35 -42 3 5 -1 10 -11 10 -12 0 -15 6 -12
25 3 14 1 28 -3 31 -5 3 -9 -8 -9 -24z"/>
<path d="M3990 3915 c7 -9 15 -13 17 -11 7 7 -7 26 -19 26 -6 0 -6 -6 2 -15z"/>
<path d="M1820 3865 c0 -5 5 -17 10 -25 5 -8 10 -10 10 -5 0 6 -5 17 -10 25
-5 8 -10 11 -10 5z"/>
<path d="M3670 3860 c0 -5 5 -10 11 -10 5 0 7 5 4 10 -3 6 -8 10 -11 10 -2 0
-4 -4 -4 -10z"/>
<path d="M3850 3856 c0 -9 5 -16 10 -16 6 0 10 4 10 9 0 6 -4 13 -10 16 -5 3
-10 -1 -10 -9z"/>
<path d="M3881 3831 c0 -9 3 -11 5 -5 3 7 13 10 23 7 10 -3 22 0 25 5 4 7 -6
10 -24 10 -21 -1 -30 -6 -29 -17z"/>
<path d="M1840 3815 c0 -5 5 -17 10 -25 5 -8 10 -10 10 -5 0 6 -5 17 -10 25
-5 8 -10 11 -10 5z"/>
<path d="M3818 3813 c7 -3 16 -2 19 1 4 3 -2 6 -13 5 -11 0 -14 -3 -6 -6z"/>
<path d="M3977 3795 c-4 -8 -2 -17 3 -20 6 -4 10 3 10 14 0 25 -6 27 -13 6z"/>
<path d="M3820 3786 c0 -9 5 -16 10 -16 6 0 10 4 10 9 0 6 -4 13 -10 16 -5 3
-10 -1 -10 -9z"/>
<path d="M3710 3780 c0 -5 5 -10 11 -10 5 0 7 5 4 10 -3 6 -8 10 -11 10 -2 0
-4 -4 -4 -10z"/>
<path d="M3777 3774 c3 -7 9 -14 14 -14 14 0 10 17 -5 23 -10 4 -13 1 -9 -9z"/>
<path d="M1860 3765 c0 -5 5 -17 10 -25 5 -8 10 -10 10 -5 0 6 -5 17 -10 25
-5 8 -10 11 -10 5z"/>
<path d="M3700 3753 c0 -22 22 -26 38 -7 16 17 16 17 -1 4 -16 -12 -20 -12
-28 1 -5 9 -9 10 -9 2z"/>
<path d="M3820 3742 c0 -4 9 -8 19 -8 11 0 17 4 15 8 -3 4 -12 8 -20 8 -8 0
-14 -4 -14 -8z"/>
<path d="M3766 3713 c-6 -15 -8 -15 -16 -3 -8 13 -10 13 -10 -1 0 -11 8 -16
23 -15 17 1 23 6 19 19 -5 21 -8 21 -16 0z"/>
<path d="M1881 3715 c0 -5 6 -21 14 -35 8 -14 14 -20 14 -15 0 6 -6 21 -14 35
-8 14 -14 21 -14 15z"/>
<path d="M3485 3650 c3 -5 16 -15 28 -21 l22 -11 -22 21 c-23 22 -39 28 -28
11z"/>
<path d="M3583 3641 c1 -11 8 -21 15 -21 12 0 12 3 1 18 -7 9 -14 19 -16 21
-1 2 -1 -6 0 -18z"/>
<path d="M3629 3646 c6 -7 9 -20 5 -29 -3 -8 -2 -17 3 -20 4 -3 9 8 10 23 1
18 -4 30 -14 34 -13 5 -13 4 -4 -8z"/>
<path d="M3803 3634 c-9 -19 -8 -24 3 -24 18 0 30 28 18 40 -5 5 -14 -1 -21
-16z"/>
<path d="M3665 3630 c1 -11 5 -23 10 -27 4 -5 5 -3 2 4 -4 6 -2 13 4 15 7 2 6
8 -3 16 -12 9 -14 8 -13 -8z"/>
<path d="M3546 3613 c-6 -14 -5 -15 5 -6 7 7 10 15 7 18 -3 3 -9 -2 -12 -12z"/>
<path d="M3550 3580 c-8 -5 -12 -12 -9 -15 4 -3 12 1 19 10 14 17 11 19 -10 5z"/>
<path d="M3263 3521 c0 -11 5 -18 9 -15 4 3 5 11 1 19 -7 21 -12 19 -10 -4z"/>
<path d="M3397 3529 c6 -6 9 -18 6 -25 -3 -8 -1 -14 5 -14 6 0 9 8 7 18 -2 9
-4 20 -4 25 -1 4 -6 7 -13 7 -9 0 -9 -3 -1 -11z"/>
<path d="M3530 3530 c0 -5 10 -10 23 -10 18 0 19 2 7 10 -19 13 -30 13 -30 0z"/>
<path d="M3671 3524 c0 -11 3 -14 6 -6 3 7 2 16 -1 19 -3 4 -6 -2 -5 -13z"/>
<path d="M3466 3509 c14 -16 15 -23 7 -26 -7 -3 -13 -9 -13 -14 0 -16 28 2 33
22 3 10 2 17 -3 14 -4 -3 -10 2 -14 10 -3 8 -11 15 -17 15 -7 0 -4 -9 7 -21z"/>
<path d="M3552 3484 c-7 -8 -12 -20 -9 -27 2 -7 9 -2 16 11 15 28 11 36 -7 16z"/>
<path d="M3500 3471 c0 -5 7 -12 16 -15 14 -5 15 -4 4 9 -14 17 -20 19 -20 6z"/>
<path d="M3450 3435 c0 -8 4 -15 10 -15 5 0 7 7 4 15 -4 8 -8 15 -10 15 -2 0
-4 -7 -4 -15z"/>
<path d="M3350 3431 c0 -6 5 -13 10 -16 6 -3 10 1 10 9 0 9 -4 16 -10 16 -5 0
-10 -4 -10 -9z"/>
<path d="M3420 3430 c-9 -6 -10 -10 -3 -10 6 0 15 5 18 10 8 12 4 12 -15 0z"/>
<path d="M3597 3433 c-4 -3 -7 -15 -7 -26 0 -12 -5 -17 -14 -14 -8 3 -17 -1
-20 -9 -3 -9 1 -14 13 -14 12 0 23 11 30 32 11 31 10 44 -2 31z"/>
<path d="M3070 3410 c0 -5 5 -10 11 -10 5 0 7 5 4 10 -3 6 -8 10 -11 10 -2 0
-4 -4 -4 -10z"/>
<path d="M3245 3410 c-3 -6 1 -7 9 -4 18 7 21 14 7 14 -6 0 -13 -4 -16 -10z"/>
<path d="M3476 3403 c-6 -14 -5 -15 5 -6 7 7 10 15 7 18 -3 3 -9 -2 -12 -12z"/>
<path d="M3317 3403 c-10 -9 -9 -23 2 -23 5 0 11 7 15 15 5 15 -5 20 -17 8z"/>
<path d="M3398 3392 c-19 -4 -24 -27 -8 -37 6 -3 10 -2 10 4 0 5 7 11 15 13 8
2 11 8 7 13 -4 6 -15 9 -24 7z"/>
<path d="M3357 3334 c3 -9 0 -20 -8 -25 -11 -7 -11 -9 -1 -9 7 0 21 8 30 18 9
9 15 16 13 15 -2 -1 -12 2 -22 8 -15 8 -17 6 -12 -7z"/>
<path d="M3237 3306 c-17 -13 -16 -14 6 -12 15 0 23 6 20 14 -6 14 -4 15 -26
-2z"/>
<path d="M3390 3292 c-17 -16 -28 -31 -25 -34 9 -9 45 3 39 13 -3 5 -2 14 2
20 4 8 9 7 15 -2 7 -11 9 -10 9 3 0 9 6 19 13 21 7 3 6 6 -5 6 -9 1 -31 -12
-48 -27z"/>
<path d="M3190 3285 c0 -3 9 -14 20 -25 11 -11 20 -16 20 -11 0 5 -7 17 -16
25 -16 16 -24 20 -24 11z"/>
<path d="M3276 3281 c-4 -6 -14 -8 -24 -5 -14 5 -15 4 -2 -5 13 -10 13 -12 0
-21 -8 -5 -12 -10 -8 -10 4 0 3 -12 -3 -26 -8 -24 -8 -25 6 -14 8 7 13 15 10
19 -2 4 5 20 16 37 13 21 19 24 19 12 0 -23 16 -23 24 -1 4 10 4 14 0 10 -4
-4 -13 -2 -20 4 -8 6 -14 7 -18 0z"/>
<path d="M3150 3250 c-9 -6 -10 -10 -3 -10 6 0 15 5 18 10 8 12 4 12 -15 0z"/>
<path d="M3105 3230 c-3 -5 -1 -10 4 -10 6 0 11 5 11 10 0 6 -2 10 -4 10 -3 0
-8 -4 -11 -10z"/>
<path d="M3190 3230 c0 -5 -6 -7 -14 -4 -8 3 -23 1 -32 -4 -14 -8 -10 -9 17
-7 19 2 37 3 42 4 11 2 9 21 -3 21 -5 0 -10 -4 -10 -10z"/>
<path d="M3152 3188 c-17 -17 -15 -24 7 -24 14 0 17 4 11 12 -6 6 -7 14 -3 17
3 4 4 7 2 7 -3 0 -10 -5 -17 -12z"/>
<path d="M3189 3186 c6 -7 8 -22 5 -32 -5 -15 -4 -16 6 -8 13 13 5 54 -12 54
-7 0 -7 -5 1 -14z"/>
<path d="M3220 3171 c0 -5 12 -11 27 -13 25 -3 25 -4 8 -18 -11 -9 -16 -10
-11 -2 4 7 2 12 -4 12 -21 0 -4 -25 19 -28 15 -2 21 0 16 7 -3 6 1 14 10 18
16 6 16 7 1 15 -25 14 -66 20 -66 9z"/>
<path d="M2890 3159 c0 -5 5 -7 10 -4 6 3 10 8 10 11 0 2 -4 4 -10 4 -5 0 -10
-5 -10 -11z"/>
<path d="M3096 3142 c-2 -4 -1 -14 5 -22 7 -12 9 -10 9 8 0 23 -5 28 -14 14z"/>
<path d="M3040 3129 c0 -5 5 -7 12 -3 8 5 9 2 5 -9 -3 -9 -1 -19 5 -23 6 -4 8
-3 4 4 -3 6 -1 14 5 18 8 4 7 9 -2 15 -19 12 -29 11 -29 -2z"/>
<path d="M3298 3133 c7 -3 16 -2 19 1 4 3 -2 6 -13 5 -11 0 -14 -3 -6 -6z"/>
<path d="M3085 3090 c-3 -5 -1 -10 4 -10 6 0 11 5 11 10 0 6 -2 10 -4 10 -3 0
-8 -4 -11 -10z"/>
<path d="M3113 3088 c3 -10 -2 -27 -14 -40 -13 -16 -17 -18 -13 -5 4 12 1 17
-11 17 -9 0 -14 -4 -11 -9 3 -5 -4 -11 -16 -14 -21 -6 -21 -7 -4 -26 10 -11
23 -18 29 -14 6 4 3 10 -9 15 -14 6 -12 7 9 3 16 -3 27 -1 27 5 0 6 5 8 12 4
7 -4 8 -3 4 4 -4 7 -3 12 2 12 11 0 7 48 -4 58 -4 4 -4 -1 -1 -10z"/>
<path d="M2960 3076 c0 -2 7 -7 16 -10 8 -3 12 -2 9 4 -6 10 -25 14 -25 6z"/>
<path d="M3015 3071 c-10 -18 -14 -51 -6 -51 5 0 11 12 14 28 6 30 3 39 -8 23z"/>
<path d="M2904 3055 c20 -15 36 -12 36 8 0 8 -3 8 -9 -2 -6 -9 -11 -10 -15 -2
-4 6 -13 11 -19 11 -7 0 -3 -7 7 -15z"/>
<path d="M2825 3040 c3 -5 8 -10 11 -10 2 0 4 5 4 10 0 6 -5 10 -11 10 -5 0
-7 -4 -4 -10z"/>
<path d="M2963 3036 c-7 -8 -18 -16 -25 -19 -8 -2 -9 -8 -4 -13 5 -5 11 -4 13
4 3 6 9 10 14 6 5 -3 9 0 9 6 0 6 4 8 10 5 6 -3 7 1 4 9 -7 19 -6 19 -21 2z"/>
<path d="M2760 3031 c0 -5 7 -11 14 -14 10 -4 13 -1 9 9 -6 15 -23 19 -23 5z"/>
<path d="M2862 3004 c10 -10 20 -16 22 -13 3 3 -5 11 -17 18 -21 13 -21 12 -5
-5z"/>
<path d="M2810 2995 c0 -8 4 -15 10 -15 5 0 7 7 4 15 -4 8 -8 15 -10 15 -2 0
-4 -7 -4 -15z"/>
<path d="M3001 3002 c0 -7 -6 -10 -13 -6 -6 4 -8 3 -5 -4 9 -14 -3 -43 -14
-36 -5 3 -9 0 -9 -5 0 -6 7 -11 15 -11 8 0 15 8 15 18 0 14 2 15 10 2 13 -21
17 -10 9 25 -4 17 -7 24 -8 17z"/>
<path d="M2943 2990 c-15 -6 -20 -15 -16 -29 7 -29 17 -26 30 9 6 17 11 30 10
29 -1 0 -12 -4 -24 -9z"/>
<path d="M2851 2985 c0 -5 4 -18 8 -28 6 -17 8 -17 25 2 11 12 14 21 8 21 -7
0 -12 -5 -12 -12 0 -6 -7 -3 -15 8 -8 10 -14 15 -14 9z"/>
<path d="M2606 2963 c-6 -14 -5 -15 5 -6 7 7 10 15 7 18 -3 3 -9 -2 -12 -12z"/>
<path d="M2817 2954 c-4 -4 -7 -12 -7 -18 0 -6 5 -4 10 4 9 13 11 13 21 0 9
-12 10 -12 7 -1 -5 17 -21 25 -31 15z"/>
<path d="M2750 2920 c0 -5 7 -10 16 -10 8 0 12 5 9 10 -3 6 -10 10 -16 10 -5
0 -9 -4 -9 -10z"/>
<path d="M2694 2905 c-4 -8 -10 -12 -15 -9 -5 3 -9 0 -9 -5 0 -18 19 -12 30 9
6 11 8 20 5 20 -3 0 -8 -7 -11 -15z"/>
<path d="M2810 2905 c0 -8 5 -15 10 -15 6 0 10 7 10 15 0 8 -4 15 -10 15 -5 0
-10 -7 -10 -15z"/>
<path d="M2725 2900 c3 -5 8 -10 11 -10 2 0 4 5 4 10 0 6 -5 10 -11 10 -5 0
-7 -4 -4 -10z"/>
<path d="M2636 2871 c-3 -5 1 -11 9 -14 9 -4 12 -1 8 9 -6 16 -10 17 -17 5z"/>
<path d="M2718 2863 c-10 -2 -18 -9 -18 -14 0 -6 -4 -7 -10 -4 -6 3 -7 -1 -4
-9 8 -21 20 -20 28 0 4 9 13 14 21 10 9 -3 15 0 15 9 0 15 -2 16 -32 8z"/>
<path d="M2836 2853 c-6 -14 -5 -15 5 -6 7 7 10 15 7 18 -3 3 -9 -2 -12 -12z"/>
<path d="M2867 2863 c-4 -3 -7 -11 -7 -17 0 -6 5 -5 12 2 6 6 9 14 7 17 -3 3
-9 2 -12 -2z"/>
<path d="M2590 2833 c0 -15 2 -16 10 -3 5 8 12 11 16 7 4 -3 1 -13 -6 -22 -16
-19 -3 -20 16 0 8 8 21 12 29 9 8 -4 15 -1 15 6 0 7 -8 10 -20 7 -11 -3 -23
-1 -26 4 -9 16 -34 10 -34 -8z"/>
<path d="M2708 2814 c-30 -15 -38 -30 -13 -20 8 3 15 3 15 0 0 -3 -7 -12 -15
-20 -13 -14 -15 -14 -15 1 0 12 -5 15 -22 10 -18 -6 -20 -4 -14 11 6 15 5 16
-5 7 -10 -10 -8 -17 9 -36 24 -26 52 -31 52 -10 0 16 17 17 22 2 2 -7 10 -4
18 7 8 10 10 15 3 11 -6 -4 -14 -3 -18 3 -3 5 -2 10 4 10 5 0 9 9 8 20 -1 11
-1 20 -2 20 0 -1 -12 -8 -27 -16z"/>
<path d="M2588 2773 c7 -3 16 -2 19 1 4 3 -2 6 -13 5 -11 0 -14 -3 -6 -6z"/>
</g>
</svg>
